M48
; DRILL file {KiCad 7.0.1} date Sun Apr 16 00:18:42 2023
; FORMAT={-:-/ absolute / metric / decimal}
; #@! TF.CreationDate,2023-04-16T00:18:42-05:00
; #@! TF.GenerationSoftware,Kicad,Pcbnew,7.0.1
; #@! TF.FileFunction,Plated,1,2,PTH
FMAT,2
METRIC
; #@! TA.AperFunction,Plated,PTH,ViaDrill
T1C0.400
; #@! TA.AperFunction,Plated,PTH,ComponentDrill
T2C1.020
; #@! TA.AperFunction,Plated,PTH,ComponentDrill
T3C3.000
%
G90
G05
T1
X72.765Y-78.518
X72.765Y-94.393
X72.765Y-97.568
X72.765Y-113.443
X72.765Y-116.618
X72.765Y-132.493
X72.765Y-135.668
X72.765Y-151.543
X72.765Y-154.718
X83.084Y-92.805
X83.084Y-111.855
X83.084Y-130.905
X83.084Y-149.955
X83.084Y-169.005
X87.052Y-72.962
X87.052Y-76.136
X87.846Y-72.168
X87.846Y-76.93
X88.64Y-72.962
X88.64Y-76.136
X89.434Y-72.168
X89.434Y-76.93
X90.227Y-72.962
X90.227Y-76.136
X91.815Y-78.518
X91.815Y-94.393
X91.815Y-97.568
X91.815Y-113.443
X91.815Y-116.618
X91.815Y-132.493
X91.815Y-135.668
X91.815Y-151.543
X91.815Y-154.718
X110.865Y-78.518
X110.865Y-94.393
X110.865Y-97.568
X110.865Y-113.443
X110.865Y-116.618
X110.865Y-132.493
X110.865Y-135.668
X110.865Y-151.543
X110.865Y-154.718
X129.915Y-78.518
X129.915Y-94.393
X129.915Y-97.568
X129.915Y-113.443
X129.915Y-116.618
X129.915Y-132.493
X129.915Y-135.668
X129.915Y-151.543
X129.915Y-154.718
X148.965Y-78.518
X148.965Y-94.393
X148.965Y-97.568
X148.965Y-113.443
X148.965Y-116.618
X148.965Y-132.493
X148.965Y-135.668
X148.965Y-151.543
X148.965Y-154.718
T2
X117.024Y-50.546
X117.024Y-68.326
X117.254Y-56.896
X117.254Y-59.436
X117.254Y-61.976
X119.564Y-50.546
X119.564Y-68.326
X122.104Y-50.546
X122.104Y-68.326
X124.644Y-50.546
X124.644Y-68.326
X127.184Y-50.546
X127.184Y-68.326
X129.725Y-50.546
X129.725Y-68.326
X132.264Y-50.546
X132.264Y-68.326
X134.804Y-50.546
X134.804Y-68.326
X137.344Y-50.546
X137.344Y-68.326
X139.885Y-50.546
X139.885Y-68.326
X142.424Y-50.546
X142.424Y-68.326
X144.964Y-50.546
X144.964Y-68.326
X147.505Y-50.546
X147.505Y-68.326
X150.044Y-50.546
X150.044Y-68.326
X152.584Y-50.546
X152.584Y-68.326
X155.124Y-50.546
X155.124Y-68.326
X157.665Y-50.546
X157.665Y-68.326
X160.204Y-50.546
X160.204Y-68.326
X162.744Y-50.546
X162.744Y-68.326
X165.284Y-50.546
X165.284Y-68.326
T3
X77.153Y-83.185
X77.153Y-102.235
X77.153Y-121.285
X77.153Y-140.335
X77.153Y-159.385
X83.502Y-80.645
X83.502Y-99.695
X83.502Y-118.745
X83.502Y-137.795
X83.502Y-156.845
X96.203Y-83.185
X96.203Y-102.235
X96.203Y-121.285
X96.203Y-140.335
X96.203Y-159.385
X102.552Y-80.645
X102.552Y-99.695
X102.552Y-118.745
X102.552Y-137.795
X102.552Y-156.845
X115.252Y-83.185
X115.252Y-102.235
X115.252Y-121.285
X115.252Y-140.335
X115.252Y-159.385
X121.602Y-80.645
X121.602Y-99.695
X121.602Y-118.745
X121.602Y-137.795
X121.602Y-156.845
X134.302Y-83.185
X134.302Y-102.235
X134.302Y-121.285
X134.302Y-140.335
X134.302Y-159.385
X140.653Y-80.645
X140.653Y-99.695
X140.653Y-118.745
X140.653Y-137.795
X140.653Y-156.845
X153.352Y-83.185
X153.352Y-102.235
X153.352Y-121.285
X153.352Y-140.335
X153.352Y-159.385
X159.702Y-80.645
X159.702Y-99.695
X159.702Y-118.745
X159.702Y-137.795
X159.702Y-156.845
T0
M30
