M48
; DRILL file {KiCad 7.0.1} date Sun Apr 16 00:18:42 2023
; FORMAT={-:-/ absolute / metric / decimal}
; #@! TF.CreationDate,2023-04-16T00:18:42-05:00
; #@! TF.GenerationSoftware,Kicad,Pcbnew,7.0.1
; #@! TF.FileFunction,NonPlated,1,2,NPTH
FMAT,2
METRIC
; #@! TA.AperFunction,NonPlated,NPTH,ComponentDrill
T1C1.500
; #@! TA.AperFunction,NonPlated,NPTH,ComponentDrill
T2C1.750
; #@! TA.AperFunction,NonPlated,NPTH,ComponentDrill
T3C1.800
; #@! TA.AperFunction,NonPlated,NPTH,ComponentDrill
T4C3.988
%
G90
G05
T1
X162.124Y-57.011
X162.124Y-61.861
T2
X75.882Y-85.725
X75.882Y-104.775
X75.882Y-123.825
X75.882Y-142.875
X75.882Y-161.925
X86.042Y-85.725
X86.042Y-104.775
X86.042Y-123.825
X86.042Y-142.875
X86.042Y-161.925
X94.932Y-85.725
X94.932Y-104.775
X94.932Y-123.825
X94.932Y-142.875
X94.932Y-161.925
X105.093Y-85.725
X105.093Y-104.775
X105.093Y-123.825
X105.093Y-142.875
X105.093Y-161.925
X113.983Y-85.725
X113.983Y-104.775
X113.983Y-123.825
X113.983Y-142.875
X113.983Y-161.925
X124.142Y-85.725
X124.142Y-104.775
X124.142Y-123.825
X124.142Y-142.875
X124.142Y-161.925
X133.032Y-85.725
X133.032Y-104.775
X133.032Y-123.825
X133.032Y-142.875
X133.032Y-161.925
X143.192Y-85.725
X143.192Y-104.775
X143.192Y-123.825
X143.192Y-142.875
X143.192Y-161.925
X152.082Y-85.725
X152.082Y-104.775
X152.082Y-123.825
X152.082Y-142.875
X152.082Y-161.925
X162.243Y-85.725
X162.243Y-104.775
X162.243Y-123.825
X162.243Y-142.875
X162.243Y-161.925
T3
X165.154Y-56.711
X165.154Y-62.161
T4
X80.962Y-85.725
X80.962Y-104.775
X80.962Y-123.825
X80.962Y-142.875
X80.962Y-161.925
X100.012Y-85.725
X100.012Y-104.775
X100.012Y-123.825
X100.012Y-142.875
X100.012Y-161.925
X119.062Y-85.725
X119.062Y-104.775
X119.062Y-123.825
X119.062Y-142.875
X119.062Y-161.925
X138.112Y-85.725
X138.112Y-104.775
X138.112Y-123.825
X138.112Y-142.875
X138.112Y-161.925
X157.162Y-85.725
X157.162Y-104.775
X157.162Y-123.825
X157.162Y-142.875
X157.162Y-161.925
T0
M30
