%TF.GenerationSoftware,KiCad,Pcbnew,7.0.1*%
%TF.CreationDate,2023-04-16T00:18:29-05:00*%
%TF.ProjectId,5x5 Macro Pad,35783520-4d61-4637-926f-205061642e6b,rev?*%
%TF.SameCoordinates,Original*%
%TF.FileFunction,Soldermask,Top*%
%TF.FilePolarity,Negative*%
%FSLAX46Y46*%
G04 Gerber Fmt 4.6, Leading zero omitted, Abs format (unit mm)*
G04 Created by KiCad (PCBNEW 7.0.1) date 2023-04-16 00:18:29*
%MOMM*%
%LPD*%
G01*
G04 APERTURE LIST*
%ADD10C,1.750000*%
%ADD11C,3.987800*%
%ADD12C,3.300000*%
%ADD13R,3.500000X1.700000*%
%ADD14O,1.700000X1.700000*%
%ADD15R,1.700000X1.700000*%
%ADD16R,1.700000X3.500000*%
%ADD17O,1.800000X1.800000*%
%ADD18O,1.500000X1.500000*%
G04 APERTURE END LIST*
D10*
%TO.C,MX25*%
X162242500Y-161925000D03*
D11*
X157162500Y-161925000D03*
D10*
X152082500Y-161925000D03*
D12*
X153352500Y-159385000D03*
X159702500Y-156845000D03*
%TD*%
D10*
%TO.C,MX24*%
X143192500Y-161925000D03*
D11*
X138112500Y-161925000D03*
D10*
X133032500Y-161925000D03*
D12*
X134302500Y-159385000D03*
X140652500Y-156845000D03*
%TD*%
D10*
%TO.C,MX23*%
X124142500Y-161925000D03*
D11*
X119062500Y-161925000D03*
D10*
X113982500Y-161925000D03*
D12*
X115252500Y-159385000D03*
X121602500Y-156845000D03*
%TD*%
D10*
%TO.C,MX22*%
X105092500Y-161925000D03*
D11*
X100012500Y-161925000D03*
D10*
X94932500Y-161925000D03*
D12*
X96202500Y-159385000D03*
X102552500Y-156845000D03*
%TD*%
D10*
%TO.C,MX21*%
X86042500Y-161925000D03*
D11*
X80962500Y-161925000D03*
D10*
X75882500Y-161925000D03*
D12*
X77152500Y-159385000D03*
X83502500Y-156845000D03*
%TD*%
D10*
%TO.C,MX20*%
X162242500Y-142875000D03*
D11*
X157162500Y-142875000D03*
D10*
X152082500Y-142875000D03*
D12*
X153352500Y-140335000D03*
X159702500Y-137795000D03*
%TD*%
D10*
%TO.C,MX19*%
X143192500Y-142875000D03*
D11*
X138112500Y-142875000D03*
D10*
X133032500Y-142875000D03*
D12*
X134302500Y-140335000D03*
X140652500Y-137795000D03*
%TD*%
D10*
%TO.C,MX18*%
X124142500Y-142875000D03*
D11*
X119062500Y-142875000D03*
D10*
X113982500Y-142875000D03*
D12*
X115252500Y-140335000D03*
X121602500Y-137795000D03*
%TD*%
D10*
%TO.C,MX17*%
X105092500Y-142875000D03*
D11*
X100012500Y-142875000D03*
D10*
X94932500Y-142875000D03*
D12*
X96202500Y-140335000D03*
X102552500Y-137795000D03*
%TD*%
D10*
%TO.C,MX16*%
X86042500Y-142875000D03*
D11*
X80962500Y-142875000D03*
D10*
X75882500Y-142875000D03*
D12*
X77152500Y-140335000D03*
X83502500Y-137795000D03*
%TD*%
D10*
%TO.C,MX15*%
X162242500Y-123825000D03*
D11*
X157162500Y-123825000D03*
D10*
X152082500Y-123825000D03*
D12*
X153352500Y-121285000D03*
X159702500Y-118745000D03*
%TD*%
D10*
%TO.C,MX14*%
X143192500Y-123825000D03*
D11*
X138112500Y-123825000D03*
D10*
X133032500Y-123825000D03*
D12*
X134302500Y-121285000D03*
X140652500Y-118745000D03*
%TD*%
D10*
%TO.C,MX13*%
X124142500Y-123825000D03*
D11*
X119062500Y-123825000D03*
D10*
X113982500Y-123825000D03*
D12*
X115252500Y-121285000D03*
X121602500Y-118745000D03*
%TD*%
D10*
%TO.C,MX12*%
X105092500Y-123825000D03*
D11*
X100012500Y-123825000D03*
D10*
X94932500Y-123825000D03*
D12*
X96202500Y-121285000D03*
X102552500Y-118745000D03*
%TD*%
D10*
%TO.C,MX11*%
X86042500Y-123825000D03*
D11*
X80962500Y-123825000D03*
D10*
X75882500Y-123825000D03*
D12*
X77152500Y-121285000D03*
X83502500Y-118745000D03*
%TD*%
D10*
%TO.C,MX10*%
X162242500Y-104775000D03*
D11*
X157162500Y-104775000D03*
D10*
X152082500Y-104775000D03*
D12*
X153352500Y-102235000D03*
X159702500Y-99695000D03*
%TD*%
D10*
%TO.C,MX9*%
X143192500Y-104775000D03*
D11*
X138112500Y-104775000D03*
D10*
X133032500Y-104775000D03*
D12*
X134302500Y-102235000D03*
X140652500Y-99695000D03*
%TD*%
D10*
%TO.C,MX8*%
X124142500Y-104775000D03*
D11*
X119062500Y-104775000D03*
D10*
X113982500Y-104775000D03*
D12*
X115252500Y-102235000D03*
X121602500Y-99695000D03*
%TD*%
D10*
%TO.C,MX7*%
X105092500Y-104775000D03*
D11*
X100012500Y-104775000D03*
D10*
X94932500Y-104775000D03*
D12*
X96202500Y-102235000D03*
X102552500Y-99695000D03*
%TD*%
D10*
%TO.C,MX6*%
X86042500Y-104775000D03*
D11*
X80962500Y-104775000D03*
D10*
X75882500Y-104775000D03*
D12*
X77152500Y-102235000D03*
X83502500Y-99695000D03*
%TD*%
D10*
%TO.C,MX5*%
X162242500Y-85725000D03*
D11*
X157162500Y-85725000D03*
D10*
X152082500Y-85725000D03*
D12*
X153352500Y-83185000D03*
X159702500Y-80645000D03*
%TD*%
D10*
%TO.C,MX4*%
X143192500Y-85725000D03*
D11*
X138112500Y-85725000D03*
D10*
X133032500Y-85725000D03*
D12*
X134302500Y-83185000D03*
X140652500Y-80645000D03*
%TD*%
D10*
%TO.C,MX3*%
X124142500Y-85725000D03*
D11*
X119062500Y-85725000D03*
D10*
X113982500Y-85725000D03*
D12*
X115252500Y-83185000D03*
X121602500Y-80645000D03*
%TD*%
D10*
%TO.C,MX2*%
X105092500Y-85725000D03*
D11*
X100012500Y-85725000D03*
D10*
X94932500Y-85725000D03*
D12*
X96202500Y-83185000D03*
X102552500Y-80645000D03*
%TD*%
D10*
%TO.C,MX1*%
X86042500Y-85725000D03*
D11*
X80962500Y-85725000D03*
D10*
X75882500Y-85725000D03*
D12*
X77152500Y-83185000D03*
X83502500Y-80645000D03*
%TD*%
D13*
%TO.C,U1*%
X116354500Y-61976000D03*
D14*
X117254500Y-61976000D03*
D13*
X116354500Y-59436000D03*
D15*
X117254500Y-59436000D03*
D13*
X116354500Y-56896000D03*
D14*
X117254500Y-56896000D03*
D16*
X165284500Y-69226000D03*
D14*
X165284500Y-68326000D03*
D16*
X162744500Y-69226000D03*
D14*
X162744500Y-68326000D03*
D16*
X160204500Y-69226000D03*
D15*
X160204500Y-68326000D03*
D16*
X157664500Y-69226000D03*
D14*
X157664500Y-68326000D03*
D16*
X155124500Y-69226000D03*
D14*
X155124500Y-68326000D03*
D16*
X152584500Y-69226000D03*
D14*
X152584500Y-68326000D03*
D16*
X150044500Y-69226000D03*
D14*
X150044500Y-68326000D03*
D16*
X147504500Y-69226000D03*
D15*
X147504500Y-68326000D03*
D16*
X144964500Y-69226000D03*
D14*
X144964500Y-68326000D03*
D16*
X142424500Y-69226000D03*
D14*
X142424500Y-68326000D03*
D16*
X139884500Y-69226000D03*
D14*
X139884500Y-68326000D03*
D16*
X137344500Y-69226000D03*
D14*
X137344500Y-68326000D03*
D16*
X134804500Y-69226000D03*
D15*
X134804500Y-68326000D03*
D16*
X132264500Y-69226000D03*
D14*
X132264500Y-68326000D03*
D16*
X129724500Y-69226000D03*
D14*
X129724500Y-68326000D03*
D16*
X127184500Y-69226000D03*
D14*
X127184500Y-68326000D03*
D16*
X124644500Y-69226000D03*
D14*
X124644500Y-68326000D03*
D16*
X122104500Y-69226000D03*
D15*
X122104500Y-68326000D03*
D16*
X119564500Y-69226000D03*
D14*
X119564500Y-68326000D03*
D16*
X117024500Y-69226000D03*
D14*
X117024500Y-68326000D03*
D16*
X117024500Y-49646000D03*
D14*
X117024500Y-50546000D03*
D16*
X119564500Y-49646000D03*
D14*
X119564500Y-50546000D03*
D16*
X122104500Y-49646000D03*
D15*
X122104500Y-50546000D03*
D16*
X124644500Y-49646000D03*
D14*
X124644500Y-50546000D03*
D16*
X127184500Y-49646000D03*
D14*
X127184500Y-50546000D03*
D16*
X129724500Y-49646000D03*
D14*
X129724500Y-50546000D03*
D16*
X132264500Y-49646000D03*
D14*
X132264500Y-50546000D03*
D16*
X134804500Y-49646000D03*
D15*
X134804500Y-50546000D03*
D16*
X137344500Y-49646000D03*
D14*
X137344500Y-50546000D03*
D16*
X139884500Y-49646000D03*
D14*
X139884500Y-50546000D03*
D16*
X142424500Y-49646000D03*
D14*
X142424500Y-50546000D03*
D16*
X144964500Y-49646000D03*
D14*
X144964500Y-50546000D03*
D16*
X147504500Y-49646000D03*
D15*
X147504500Y-50546000D03*
D16*
X150044500Y-49646000D03*
D14*
X150044500Y-50546000D03*
D16*
X152584500Y-49646000D03*
D14*
X152584500Y-50546000D03*
D16*
X155124500Y-49646000D03*
D14*
X155124500Y-50546000D03*
D16*
X157664500Y-49646000D03*
D14*
X157664500Y-50546000D03*
D16*
X160204500Y-49646000D03*
D15*
X160204500Y-50546000D03*
D16*
X162744500Y-49646000D03*
D14*
X162744500Y-50546000D03*
D16*
X165284500Y-49646000D03*
D14*
X165284500Y-50546000D03*
D17*
X165154500Y-62161000D03*
D18*
X162124500Y-61861000D03*
X162124500Y-57011000D03*
D17*
X165154500Y-56711000D03*
%TD*%
M02*
