%TF.GenerationSoftware,KiCad,Pcbnew,7.0.1*%
%TF.CreationDate,2023-04-16T00:18:29-05:00*%
%TF.ProjectId,5x5 Macro Pad,35783520-4d61-4637-926f-205061642e6b,rev?*%
%TF.SameCoordinates,Original*%
%TF.FileFunction,Soldermask,Bot*%
%TF.FilePolarity,Negative*%
%FSLAX46Y46*%
G04 Gerber Fmt 4.6, Leading zero omitted, Abs format (unit mm)*
G04 Created by KiCad (PCBNEW 7.0.1) date 2023-04-16 00:18:29*
%MOMM*%
%LPD*%
G01*
G04 APERTURE LIST*
G04 Aperture macros list*
%AMRoundRect*
0 Rectangle with rounded corners*
0 $1 Rounding radius*
0 $2 $3 $4 $5 $6 $7 $8 $9 X,Y pos of 4 corners*
0 Add a 4 corners polygon primitive as box body*
4,1,4,$2,$3,$4,$5,$6,$7,$8,$9,$2,$3,0*
0 Add four circle primitives for the rounded corners*
1,1,$1+$1,$2,$3*
1,1,$1+$1,$4,$5*
1,1,$1+$1,$6,$7*
1,1,$1+$1,$8,$9*
0 Add four rect primitives between the rounded corners*
20,1,$1+$1,$2,$3,$4,$5,0*
20,1,$1+$1,$4,$5,$6,$7,0*
20,1,$1+$1,$6,$7,$8,$9,0*
20,1,$1+$1,$8,$9,$2,$3,0*%
G04 Aperture macros list end*
%ADD10RoundRect,0.250000X-0.325000X-0.450000X0.325000X-0.450000X0.325000X0.450000X-0.325000X0.450000X0*%
%ADD11C,1.750000*%
%ADD12C,3.987800*%
%ADD13C,3.300000*%
%ADD14RoundRect,0.250000X1.025000X1.000000X-1.025000X1.000000X-1.025000X-1.000000X1.025000X-1.000000X0*%
%ADD15O,1.700000X1.700000*%
%ADD16R,1.700000X1.700000*%
%ADD17O,1.800000X1.800000*%
%ADD18O,1.500000X1.500000*%
G04 APERTURE END LIST*
D10*
%TO.C,D25*%
X161202500Y-170592750D03*
X163252500Y-170592750D03*
%TD*%
%TO.C,D24*%
X142152500Y-170592750D03*
X144202500Y-170592750D03*
%TD*%
%TO.C,D23*%
X123102500Y-170592750D03*
X125152500Y-170592750D03*
%TD*%
%TO.C,D22*%
X104052500Y-170592750D03*
X106102500Y-170592750D03*
%TD*%
%TO.C,D21*%
X85002500Y-170592750D03*
X87052500Y-170592750D03*
%TD*%
%TO.C,D20*%
X161202500Y-151542750D03*
X163252500Y-151542750D03*
%TD*%
%TO.C,D19*%
X142152500Y-151542750D03*
X144202500Y-151542750D03*
%TD*%
%TO.C,D18*%
X123102500Y-151542750D03*
X125152500Y-151542750D03*
%TD*%
%TO.C,D17*%
X104052500Y-151542750D03*
X106102500Y-151542750D03*
%TD*%
%TO.C,D16*%
X85002500Y-151542750D03*
X87052500Y-151542750D03*
%TD*%
%TO.C,D15*%
X161202500Y-132492750D03*
X163252500Y-132492750D03*
%TD*%
%TO.C,D14*%
X142152500Y-132492750D03*
X144202500Y-132492750D03*
%TD*%
%TO.C,D13*%
X123102500Y-132492750D03*
X125152500Y-132492750D03*
%TD*%
%TO.C,D12*%
X106102500Y-132492750D03*
X104052500Y-132492750D03*
%TD*%
%TO.C,D11*%
X85002500Y-132492750D03*
X87052500Y-132492750D03*
%TD*%
%TO.C,D10*%
X161202500Y-113442750D03*
X163252500Y-113442750D03*
%TD*%
%TO.C,D9*%
X142152500Y-113442750D03*
X144202500Y-113442750D03*
%TD*%
%TO.C,D8*%
X123102500Y-113442750D03*
X125152500Y-113442750D03*
%TD*%
%TO.C,D7*%
X104052500Y-113442750D03*
X106102500Y-113442750D03*
%TD*%
%TO.C,D6*%
X85002500Y-113442750D03*
X87052500Y-113442750D03*
%TD*%
%TO.C,D5*%
X161202500Y-94392750D03*
X163252500Y-94392750D03*
%TD*%
%TO.C,D4*%
X144202500Y-94392750D03*
X142152500Y-94392750D03*
%TD*%
%TO.C,D3*%
X123102500Y-94392750D03*
X125152500Y-94392750D03*
%TD*%
%TO.C,D2*%
X104052500Y-94392750D03*
X106102500Y-94392750D03*
%TD*%
%TO.C,D1*%
X87052500Y-94392750D03*
X85002500Y-94392750D03*
%TD*%
D11*
%TO.C,MX25*%
X162242500Y-161925000D03*
D12*
X157162500Y-161925000D03*
D11*
X152082500Y-161925000D03*
D13*
X153352500Y-159385000D03*
D14*
X149802500Y-159385000D03*
X163252500Y-156845000D03*
D13*
X159702500Y-156845000D03*
%TD*%
D11*
%TO.C,MX24*%
X143192500Y-161925000D03*
D12*
X138112500Y-161925000D03*
D11*
X133032500Y-161925000D03*
D13*
X134302500Y-159385000D03*
D14*
X130752500Y-159385000D03*
X144202500Y-156845000D03*
D13*
X140652500Y-156845000D03*
%TD*%
D11*
%TO.C,MX23*%
X124142500Y-161925000D03*
D12*
X119062500Y-161925000D03*
D11*
X113982500Y-161925000D03*
D13*
X115252500Y-159385000D03*
D14*
X111702500Y-159385000D03*
X125152500Y-156845000D03*
D13*
X121602500Y-156845000D03*
%TD*%
D11*
%TO.C,MX22*%
X105092500Y-161925000D03*
D12*
X100012500Y-161925000D03*
D11*
X94932500Y-161925000D03*
D13*
X96202500Y-159385000D03*
D14*
X92652500Y-159385000D03*
X106102500Y-156845000D03*
D13*
X102552500Y-156845000D03*
%TD*%
D11*
%TO.C,MX21*%
X86042500Y-161925000D03*
D12*
X80962500Y-161925000D03*
D11*
X75882500Y-161925000D03*
D13*
X77152500Y-159385000D03*
D14*
X73602500Y-159385000D03*
X87052500Y-156845000D03*
D13*
X83502500Y-156845000D03*
%TD*%
D11*
%TO.C,MX20*%
X162242500Y-142875000D03*
D12*
X157162500Y-142875000D03*
D11*
X152082500Y-142875000D03*
D13*
X153352500Y-140335000D03*
D14*
X149802500Y-140335000D03*
X163252500Y-137795000D03*
D13*
X159702500Y-137795000D03*
%TD*%
D11*
%TO.C,MX19*%
X143192500Y-142875000D03*
D12*
X138112500Y-142875000D03*
D11*
X133032500Y-142875000D03*
D13*
X134302500Y-140335000D03*
D14*
X130752500Y-140335000D03*
X144202500Y-137795000D03*
D13*
X140652500Y-137795000D03*
%TD*%
D11*
%TO.C,MX18*%
X124142500Y-142875000D03*
D12*
X119062500Y-142875000D03*
D11*
X113982500Y-142875000D03*
D13*
X115252500Y-140335000D03*
D14*
X111702500Y-140335000D03*
X125152500Y-137795000D03*
D13*
X121602500Y-137795000D03*
%TD*%
D11*
%TO.C,MX17*%
X105092500Y-142875000D03*
D12*
X100012500Y-142875000D03*
D11*
X94932500Y-142875000D03*
D13*
X96202500Y-140335000D03*
D14*
X92652500Y-140335000D03*
X106102500Y-137795000D03*
D13*
X102552500Y-137795000D03*
%TD*%
D11*
%TO.C,MX16*%
X86042500Y-142875000D03*
D12*
X80962500Y-142875000D03*
D11*
X75882500Y-142875000D03*
D13*
X77152500Y-140335000D03*
D14*
X73602500Y-140335000D03*
X87052500Y-137795000D03*
D13*
X83502500Y-137795000D03*
%TD*%
D11*
%TO.C,MX15*%
X162242500Y-123825000D03*
D12*
X157162500Y-123825000D03*
D11*
X152082500Y-123825000D03*
D13*
X153352500Y-121285000D03*
D14*
X149802500Y-121285000D03*
X163252500Y-118745000D03*
D13*
X159702500Y-118745000D03*
%TD*%
D11*
%TO.C,MX14*%
X143192500Y-123825000D03*
D12*
X138112500Y-123825000D03*
D11*
X133032500Y-123825000D03*
D13*
X134302500Y-121285000D03*
D14*
X130752500Y-121285000D03*
X144202500Y-118745000D03*
D13*
X140652500Y-118745000D03*
%TD*%
D11*
%TO.C,MX13*%
X124142500Y-123825000D03*
D12*
X119062500Y-123825000D03*
D11*
X113982500Y-123825000D03*
D13*
X115252500Y-121285000D03*
D14*
X111702500Y-121285000D03*
X125152500Y-118745000D03*
D13*
X121602500Y-118745000D03*
%TD*%
D11*
%TO.C,MX12*%
X105092500Y-123825000D03*
D12*
X100012500Y-123825000D03*
D11*
X94932500Y-123825000D03*
D13*
X96202500Y-121285000D03*
D14*
X92652500Y-121285000D03*
X106102500Y-118745000D03*
D13*
X102552500Y-118745000D03*
%TD*%
D11*
%TO.C,MX11*%
X86042500Y-123825000D03*
D12*
X80962500Y-123825000D03*
D11*
X75882500Y-123825000D03*
D13*
X77152500Y-121285000D03*
D14*
X73602500Y-121285000D03*
X87052500Y-118745000D03*
D13*
X83502500Y-118745000D03*
%TD*%
D11*
%TO.C,MX10*%
X162242500Y-104775000D03*
D12*
X157162500Y-104775000D03*
D11*
X152082500Y-104775000D03*
D13*
X153352500Y-102235000D03*
D14*
X149802500Y-102235000D03*
X163252500Y-99695000D03*
D13*
X159702500Y-99695000D03*
%TD*%
D11*
%TO.C,MX9*%
X143192500Y-104775000D03*
D12*
X138112500Y-104775000D03*
D11*
X133032500Y-104775000D03*
D13*
X134302500Y-102235000D03*
D14*
X130752500Y-102235000D03*
X144202500Y-99695000D03*
D13*
X140652500Y-99695000D03*
%TD*%
D11*
%TO.C,MX8*%
X124142500Y-104775000D03*
D12*
X119062500Y-104775000D03*
D11*
X113982500Y-104775000D03*
D13*
X115252500Y-102235000D03*
D14*
X111702500Y-102235000D03*
X125152500Y-99695000D03*
D13*
X121602500Y-99695000D03*
%TD*%
D11*
%TO.C,MX7*%
X105092500Y-104775000D03*
D12*
X100012500Y-104775000D03*
D11*
X94932500Y-104775000D03*
D13*
X96202500Y-102235000D03*
D14*
X92652500Y-102235000D03*
X106102500Y-99695000D03*
D13*
X102552500Y-99695000D03*
%TD*%
D11*
%TO.C,MX6*%
X86042500Y-104775000D03*
D12*
X80962500Y-104775000D03*
D11*
X75882500Y-104775000D03*
D13*
X77152500Y-102235000D03*
D14*
X73602500Y-102235000D03*
X87052500Y-99695000D03*
D13*
X83502500Y-99695000D03*
%TD*%
D11*
%TO.C,MX5*%
X162242500Y-85725000D03*
D12*
X157162500Y-85725000D03*
D11*
X152082500Y-85725000D03*
D13*
X153352500Y-83185000D03*
D14*
X149802500Y-83185000D03*
X163252500Y-80645000D03*
D13*
X159702500Y-80645000D03*
%TD*%
D11*
%TO.C,MX4*%
X143192500Y-85725000D03*
D12*
X138112500Y-85725000D03*
D11*
X133032500Y-85725000D03*
D13*
X134302500Y-83185000D03*
D14*
X130752500Y-83185000D03*
X144202500Y-80645000D03*
D13*
X140652500Y-80645000D03*
%TD*%
D11*
%TO.C,MX3*%
X124142500Y-85725000D03*
D12*
X119062500Y-85725000D03*
D11*
X113982500Y-85725000D03*
D13*
X115252500Y-83185000D03*
D14*
X111702500Y-83185000D03*
X125152500Y-80645000D03*
D13*
X121602500Y-80645000D03*
%TD*%
D11*
%TO.C,MX2*%
X105092500Y-85725000D03*
D12*
X100012500Y-85725000D03*
D11*
X94932500Y-85725000D03*
D13*
X96202500Y-83185000D03*
D14*
X92652500Y-83185000D03*
X106102500Y-80645000D03*
D13*
X102552500Y-80645000D03*
%TD*%
D11*
%TO.C,MX1*%
X86042500Y-85725000D03*
D12*
X80962500Y-85725000D03*
D11*
X75882500Y-85725000D03*
D13*
X77152500Y-83185000D03*
D14*
X73602500Y-83185000D03*
X87052500Y-80645000D03*
D13*
X83502500Y-80645000D03*
%TD*%
D15*
%TO.C,U1*%
X117254500Y-61976000D03*
D16*
X117254500Y-59436000D03*
D15*
X117254500Y-56896000D03*
X165284500Y-68326000D03*
X162744500Y-68326000D03*
D16*
X160204500Y-68326000D03*
D15*
X157664500Y-68326000D03*
X155124500Y-68326000D03*
X152584500Y-68326000D03*
X150044500Y-68326000D03*
D16*
X147504500Y-68326000D03*
D15*
X144964500Y-68326000D03*
X142424500Y-68326000D03*
X139884500Y-68326000D03*
X137344500Y-68326000D03*
D16*
X134804500Y-68326000D03*
D15*
X132264500Y-68326000D03*
X129724500Y-68326000D03*
X127184500Y-68326000D03*
X124644500Y-68326000D03*
D16*
X122104500Y-68326000D03*
D15*
X119564500Y-68326000D03*
X117024500Y-68326000D03*
X117024500Y-50546000D03*
X119564500Y-50546000D03*
D16*
X122104500Y-50546000D03*
D15*
X124644500Y-50546000D03*
X127184500Y-50546000D03*
X129724500Y-50546000D03*
X132264500Y-50546000D03*
D16*
X134804500Y-50546000D03*
D15*
X137344500Y-50546000D03*
X139884500Y-50546000D03*
X142424500Y-50546000D03*
X144964500Y-50546000D03*
D16*
X147504500Y-50546000D03*
D15*
X150044500Y-50546000D03*
X152584500Y-50546000D03*
X155124500Y-50546000D03*
X157664500Y-50546000D03*
D16*
X160204500Y-50546000D03*
D15*
X162744500Y-50546000D03*
X165284500Y-50546000D03*
D17*
X165154500Y-62161000D03*
D18*
X162124500Y-61861000D03*
X162124500Y-57011000D03*
D17*
X165154500Y-56711000D03*
%TD*%
M02*
