%TF.GenerationSoftware,KiCad,Pcbnew,7.0.1*%
%TF.CreationDate,2023-04-16T00:18:44-05:00*%
%TF.ProjectId,5x5 Macro Pad,35783520-4d61-4637-926f-205061642e6b,rev?*%
%TF.SameCoordinates,Original*%
%TF.FileFunction,Drillmap*%
%TF.FilePolarity,Positive*%
%FSLAX45Y45*%
G04 Gerber Fmt 4.5, Leading zero omitted, Abs format (unit mm)*
G04 Created by KiCad (PCBNEW 7.0.1) date 2023-04-16 00:18:44*
%MOMM*%
%LPD*%
G01*
G04 APERTURE LIST*
%ADD10C,0.200000*%
%ADD11C,0.040000*%
%ADD12C,0.102000*%
%ADD13C,0.300000*%
G04 APERTURE END LIST*
D10*
X7302500Y-4445000D02*
G75*
G03*
X7143750Y-4603750I0J-158750D01*
G01*
X16523275Y-4445000D02*
X7302500Y-4445000D01*
X7143750Y-5318125D02*
X7143750Y-4603750D01*
X7143750Y-17145000D02*
X7143750Y-5318125D01*
X16682025Y-4603750D02*
G75*
G03*
X16523275Y-4445000I-158750J0D01*
G01*
X16682025Y-17145000D02*
X16682025Y-4603750D01*
X16523275Y-17303750D02*
G75*
G03*
X16682025Y-17145000I0J158750D01*
G01*
X7302500Y-17303750D02*
X16523275Y-17303750D01*
X7143750Y-17145000D02*
G75*
G03*
X7302500Y-17303750I158750J0D01*
G01*
D11*
X7256500Y-7831775D02*
X7296500Y-7871775D01*
X7296500Y-7831775D02*
X7256500Y-7871775D01*
X7256500Y-9419275D02*
X7296500Y-9459275D01*
X7296500Y-9419275D02*
X7256500Y-9459275D01*
X7256500Y-9736775D02*
X7296500Y-9776775D01*
X7296500Y-9736775D02*
X7256500Y-9776775D01*
X7256500Y-11324275D02*
X7296500Y-11364275D01*
X7296500Y-11324275D02*
X7256500Y-11364275D01*
X7256500Y-11641775D02*
X7296500Y-11681775D01*
X7296500Y-11641775D02*
X7256500Y-11681775D01*
X7256500Y-13229275D02*
X7296500Y-13269275D01*
X7296500Y-13229275D02*
X7256500Y-13269275D01*
X7256500Y-13546775D02*
X7296500Y-13586775D01*
X7296500Y-13546775D02*
X7256500Y-13586775D01*
X7256500Y-15134275D02*
X7296500Y-15174275D01*
X7296500Y-15134275D02*
X7256500Y-15174275D01*
X7256500Y-15451775D02*
X7296500Y-15491775D01*
X7296500Y-15451775D02*
X7256500Y-15491775D01*
X8288375Y-9260525D02*
X8328375Y-9300525D01*
X8328375Y-9260525D02*
X8288375Y-9300525D01*
X8288375Y-11165525D02*
X8328375Y-11205525D01*
X8328375Y-11165525D02*
X8288375Y-11205525D01*
X8288375Y-13070525D02*
X8328375Y-13110525D01*
X8328375Y-13070525D02*
X8288375Y-13110525D01*
X8288375Y-14975525D02*
X8328375Y-15015525D01*
X8328375Y-14975525D02*
X8288375Y-15015525D01*
X8288375Y-16880525D02*
X8328375Y-16920525D01*
X8328375Y-16880525D02*
X8288375Y-16920525D01*
X8685250Y-7276150D02*
X8725250Y-7316150D01*
X8725250Y-7276150D02*
X8685250Y-7316150D01*
X8685250Y-7593650D02*
X8725250Y-7633650D01*
X8725250Y-7593650D02*
X8685250Y-7633650D01*
X8764625Y-7196775D02*
X8804625Y-7236775D01*
X8804625Y-7196775D02*
X8764625Y-7236775D01*
X8764625Y-7673025D02*
X8804625Y-7713025D01*
X8804625Y-7673025D02*
X8764625Y-7713025D01*
X8844000Y-7276150D02*
X8884000Y-7316150D01*
X8884000Y-7276150D02*
X8844000Y-7316150D01*
X8844000Y-7593650D02*
X8884000Y-7633650D01*
X8884000Y-7593650D02*
X8844000Y-7633650D01*
X8923375Y-7196775D02*
X8963375Y-7236775D01*
X8963375Y-7196775D02*
X8923375Y-7236775D01*
X8923375Y-7673025D02*
X8963375Y-7713025D01*
X8963375Y-7673025D02*
X8923375Y-7713025D01*
X9002750Y-7276150D02*
X9042750Y-7316150D01*
X9042750Y-7276150D02*
X9002750Y-7316150D01*
X9002750Y-7593650D02*
X9042750Y-7633650D01*
X9042750Y-7593650D02*
X9002750Y-7633650D01*
X9161500Y-7831775D02*
X9201500Y-7871775D01*
X9201500Y-7831775D02*
X9161500Y-7871775D01*
X9161500Y-9419275D02*
X9201500Y-9459275D01*
X9201500Y-9419275D02*
X9161500Y-9459275D01*
X9161500Y-9736775D02*
X9201500Y-9776775D01*
X9201500Y-9736775D02*
X9161500Y-9776775D01*
X9161500Y-11324275D02*
X9201500Y-11364275D01*
X9201500Y-11324275D02*
X9161500Y-11364275D01*
X9161500Y-11641775D02*
X9201500Y-11681775D01*
X9201500Y-11641775D02*
X9161500Y-11681775D01*
X9161500Y-13229275D02*
X9201500Y-13269275D01*
X9201500Y-13229275D02*
X9161500Y-13269275D01*
X9161500Y-13546775D02*
X9201500Y-13586775D01*
X9201500Y-13546775D02*
X9161500Y-13586775D01*
X9161500Y-15134275D02*
X9201500Y-15174275D01*
X9201500Y-15134275D02*
X9161500Y-15174275D01*
X9161500Y-15451775D02*
X9201500Y-15491775D01*
X9201500Y-15451775D02*
X9161500Y-15491775D01*
X11066500Y-7831775D02*
X11106500Y-7871775D01*
X11106500Y-7831775D02*
X11066500Y-7871775D01*
X11066500Y-9419275D02*
X11106500Y-9459275D01*
X11106500Y-9419275D02*
X11066500Y-9459275D01*
X11066500Y-9736775D02*
X11106500Y-9776775D01*
X11106500Y-9736775D02*
X11066500Y-9776775D01*
X11066500Y-11324275D02*
X11106500Y-11364275D01*
X11106500Y-11324275D02*
X11066500Y-11364275D01*
X11066500Y-11641775D02*
X11106500Y-11681775D01*
X11106500Y-11641775D02*
X11066500Y-11681775D01*
X11066500Y-13229275D02*
X11106500Y-13269275D01*
X11106500Y-13229275D02*
X11066500Y-13269275D01*
X11066500Y-13546775D02*
X11106500Y-13586775D01*
X11106500Y-13546775D02*
X11066500Y-13586775D01*
X11066500Y-15134275D02*
X11106500Y-15174275D01*
X11106500Y-15134275D02*
X11066500Y-15174275D01*
X11066500Y-15451775D02*
X11106500Y-15491775D01*
X11106500Y-15451775D02*
X11066500Y-15491775D01*
X12971500Y-7831775D02*
X13011500Y-7871775D01*
X13011500Y-7831775D02*
X12971500Y-7871775D01*
X12971500Y-9419275D02*
X13011500Y-9459275D01*
X13011500Y-9419275D02*
X12971500Y-9459275D01*
X12971500Y-9736775D02*
X13011500Y-9776775D01*
X13011500Y-9736775D02*
X12971500Y-9776775D01*
X12971500Y-11324275D02*
X13011500Y-11364275D01*
X13011500Y-11324275D02*
X12971500Y-11364275D01*
X12971500Y-11641775D02*
X13011500Y-11681775D01*
X13011500Y-11641775D02*
X12971500Y-11681775D01*
X12971500Y-13229275D02*
X13011500Y-13269275D01*
X13011500Y-13229275D02*
X12971500Y-13269275D01*
X12971500Y-13546775D02*
X13011500Y-13586775D01*
X13011500Y-13546775D02*
X12971500Y-13586775D01*
X12971500Y-15134275D02*
X13011500Y-15174275D01*
X13011500Y-15134275D02*
X12971500Y-15174275D01*
X12971500Y-15451775D02*
X13011500Y-15491775D01*
X13011500Y-15451775D02*
X12971500Y-15491775D01*
X14876500Y-7831775D02*
X14916500Y-7871775D01*
X14916500Y-7831775D02*
X14876500Y-7871775D01*
X14876500Y-9419275D02*
X14916500Y-9459275D01*
X14916500Y-9419275D02*
X14876500Y-9459275D01*
X14876500Y-9736775D02*
X14916500Y-9776775D01*
X14916500Y-9736775D02*
X14876500Y-9776775D01*
X14876500Y-11324275D02*
X14916500Y-11364275D01*
X14916500Y-11324275D02*
X14876500Y-11364275D01*
X14876500Y-11641775D02*
X14916500Y-11681775D01*
X14916500Y-11641775D02*
X14876500Y-11681775D01*
X14876500Y-13229275D02*
X14916500Y-13269275D01*
X14916500Y-13229275D02*
X14876500Y-13269275D01*
X14876500Y-13546775D02*
X14916500Y-13586775D01*
X14916500Y-13546775D02*
X14876500Y-13586775D01*
X14876500Y-15134275D02*
X14916500Y-15174275D01*
X14916500Y-15134275D02*
X14876500Y-15174275D01*
X14876500Y-15451775D02*
X14916500Y-15491775D01*
X14916500Y-15451775D02*
X14876500Y-15491775D01*
D12*
X11753450Y-5054600D02*
G75*
G03*
X11753450Y-5054600I-51000J0D01*
G01*
X11753450Y-6832600D02*
G75*
G03*
X11753450Y-6832600I-51000J0D01*
G01*
X11776450Y-5689600D02*
G75*
G03*
X11776450Y-5689600I-51000J0D01*
G01*
X11776450Y-5943600D02*
G75*
G03*
X11776450Y-5943600I-51000J0D01*
G01*
X11776450Y-6197600D02*
G75*
G03*
X11776450Y-6197600I-51000J0D01*
G01*
X12007450Y-5054600D02*
G75*
G03*
X12007450Y-5054600I-51000J0D01*
G01*
X12007450Y-6832600D02*
G75*
G03*
X12007450Y-6832600I-51000J0D01*
G01*
X12261450Y-5054600D02*
G75*
G03*
X12261450Y-5054600I-51000J0D01*
G01*
X12261450Y-6832600D02*
G75*
G03*
X12261450Y-6832600I-51000J0D01*
G01*
X12515450Y-5054600D02*
G75*
G03*
X12515450Y-5054600I-51000J0D01*
G01*
X12515450Y-6832600D02*
G75*
G03*
X12515450Y-6832600I-51000J0D01*
G01*
X12769450Y-5054600D02*
G75*
G03*
X12769450Y-5054600I-51000J0D01*
G01*
X12769450Y-6832600D02*
G75*
G03*
X12769450Y-6832600I-51000J0D01*
G01*
X13023450Y-5054600D02*
G75*
G03*
X13023450Y-5054600I-51000J0D01*
G01*
X13023450Y-6832600D02*
G75*
G03*
X13023450Y-6832600I-51000J0D01*
G01*
X13277450Y-5054600D02*
G75*
G03*
X13277450Y-5054600I-51000J0D01*
G01*
X13277450Y-6832600D02*
G75*
G03*
X13277450Y-6832600I-51000J0D01*
G01*
X13531450Y-5054600D02*
G75*
G03*
X13531450Y-5054600I-51000J0D01*
G01*
X13531450Y-6832600D02*
G75*
G03*
X13531450Y-6832600I-51000J0D01*
G01*
X13785450Y-5054600D02*
G75*
G03*
X13785450Y-5054600I-51000J0D01*
G01*
X13785450Y-6832600D02*
G75*
G03*
X13785450Y-6832600I-51000J0D01*
G01*
X14039450Y-5054600D02*
G75*
G03*
X14039450Y-5054600I-51000J0D01*
G01*
X14039450Y-6832600D02*
G75*
G03*
X14039450Y-6832600I-51000J0D01*
G01*
X14293450Y-5054600D02*
G75*
G03*
X14293450Y-5054600I-51000J0D01*
G01*
X14293450Y-6832600D02*
G75*
G03*
X14293450Y-6832600I-51000J0D01*
G01*
X14547450Y-5054600D02*
G75*
G03*
X14547450Y-5054600I-51000J0D01*
G01*
X14547450Y-6832600D02*
G75*
G03*
X14547450Y-6832600I-51000J0D01*
G01*
X14801450Y-5054600D02*
G75*
G03*
X14801450Y-5054600I-51000J0D01*
G01*
X14801450Y-6832600D02*
G75*
G03*
X14801450Y-6832600I-51000J0D01*
G01*
X15055450Y-5054600D02*
G75*
G03*
X15055450Y-5054600I-51000J0D01*
G01*
X15055450Y-6832600D02*
G75*
G03*
X15055450Y-6832600I-51000J0D01*
G01*
X15309450Y-5054600D02*
G75*
G03*
X15309450Y-5054600I-51000J0D01*
G01*
X15309450Y-6832600D02*
G75*
G03*
X15309450Y-6832600I-51000J0D01*
G01*
X15563450Y-5054600D02*
G75*
G03*
X15563450Y-5054600I-51000J0D01*
G01*
X15563450Y-6832600D02*
G75*
G03*
X15563450Y-6832600I-51000J0D01*
G01*
X15817450Y-5054600D02*
G75*
G03*
X15817450Y-5054600I-51000J0D01*
G01*
X15817450Y-6832600D02*
G75*
G03*
X15817450Y-6832600I-51000J0D01*
G01*
X16071450Y-5054600D02*
G75*
G03*
X16071450Y-5054600I-51000J0D01*
G01*
X16071450Y-6832600D02*
G75*
G03*
X16071450Y-6832600I-51000J0D01*
G01*
X16325450Y-5054600D02*
G75*
G03*
X16325450Y-5054600I-51000J0D01*
G01*
X16325450Y-6832600D02*
G75*
G03*
X16325450Y-6832600I-51000J0D01*
G01*
X16579450Y-5054600D02*
G75*
G03*
X16579450Y-5054600I-51000J0D01*
G01*
X16579450Y-6832600D02*
G75*
G03*
X16579450Y-6832600I-51000J0D01*
G01*
D13*
X7715250Y-8168500D02*
X7715250Y-8468500D01*
X7565250Y-8318500D02*
X7865250Y-8318500D01*
X7715250Y-10073500D02*
X7715250Y-10373500D01*
X7565250Y-10223500D02*
X7865250Y-10223500D01*
X7715250Y-11978500D02*
X7715250Y-12278500D01*
X7565250Y-12128500D02*
X7865250Y-12128500D01*
X7715250Y-13883500D02*
X7715250Y-14183500D01*
X7565250Y-14033500D02*
X7865250Y-14033500D01*
X7715250Y-15788500D02*
X7715250Y-16088500D01*
X7565250Y-15938500D02*
X7865250Y-15938500D01*
X8350250Y-7914500D02*
X8350250Y-8214500D01*
X8200250Y-8064500D02*
X8500250Y-8064500D01*
X8350250Y-9819500D02*
X8350250Y-10119500D01*
X8200250Y-9969500D02*
X8500250Y-9969500D01*
X8350250Y-11724500D02*
X8350250Y-12024500D01*
X8200250Y-11874500D02*
X8500250Y-11874500D01*
X8350250Y-13629500D02*
X8350250Y-13929500D01*
X8200250Y-13779500D02*
X8500250Y-13779500D01*
X8350250Y-15534500D02*
X8350250Y-15834500D01*
X8200250Y-15684500D02*
X8500250Y-15684500D01*
X9620250Y-8168500D02*
X9620250Y-8468500D01*
X9470250Y-8318500D02*
X9770250Y-8318500D01*
X9620250Y-10073500D02*
X9620250Y-10373500D01*
X9470250Y-10223500D02*
X9770250Y-10223500D01*
X9620250Y-11978500D02*
X9620250Y-12278500D01*
X9470250Y-12128500D02*
X9770250Y-12128500D01*
X9620250Y-13883500D02*
X9620250Y-14183500D01*
X9470250Y-14033500D02*
X9770250Y-14033500D01*
X9620250Y-15788500D02*
X9620250Y-16088500D01*
X9470250Y-15938500D02*
X9770250Y-15938500D01*
X10255250Y-7914500D02*
X10255250Y-8214500D01*
X10105250Y-8064500D02*
X10405250Y-8064500D01*
X10255250Y-9819500D02*
X10255250Y-10119500D01*
X10105250Y-9969500D02*
X10405250Y-9969500D01*
X10255250Y-11724500D02*
X10255250Y-12024500D01*
X10105250Y-11874500D02*
X10405250Y-11874500D01*
X10255250Y-13629500D02*
X10255250Y-13929500D01*
X10105250Y-13779500D02*
X10405250Y-13779500D01*
X10255250Y-15534500D02*
X10255250Y-15834500D01*
X10105250Y-15684500D02*
X10405250Y-15684500D01*
X11525250Y-8168500D02*
X11525250Y-8468500D01*
X11375250Y-8318500D02*
X11675250Y-8318500D01*
X11525250Y-10073500D02*
X11525250Y-10373500D01*
X11375250Y-10223500D02*
X11675250Y-10223500D01*
X11525250Y-11978500D02*
X11525250Y-12278500D01*
X11375250Y-12128500D02*
X11675250Y-12128500D01*
X11525250Y-13883500D02*
X11525250Y-14183500D01*
X11375250Y-14033500D02*
X11675250Y-14033500D01*
X11525250Y-15788500D02*
X11525250Y-16088500D01*
X11375250Y-15938500D02*
X11675250Y-15938500D01*
X12160250Y-7914500D02*
X12160250Y-8214500D01*
X12010250Y-8064500D02*
X12310250Y-8064500D01*
X12160250Y-9819500D02*
X12160250Y-10119500D01*
X12010250Y-9969500D02*
X12310250Y-9969500D01*
X12160250Y-11724500D02*
X12160250Y-12024500D01*
X12010250Y-11874500D02*
X12310250Y-11874500D01*
X12160250Y-13629500D02*
X12160250Y-13929500D01*
X12010250Y-13779500D02*
X12310250Y-13779500D01*
X12160250Y-15534500D02*
X12160250Y-15834500D01*
X12010250Y-15684500D02*
X12310250Y-15684500D01*
X13430250Y-8168500D02*
X13430250Y-8468500D01*
X13280250Y-8318500D02*
X13580250Y-8318500D01*
X13430250Y-10073500D02*
X13430250Y-10373500D01*
X13280250Y-10223500D02*
X13580250Y-10223500D01*
X13430250Y-11978500D02*
X13430250Y-12278500D01*
X13280250Y-12128500D02*
X13580250Y-12128500D01*
X13430250Y-13883500D02*
X13430250Y-14183500D01*
X13280250Y-14033500D02*
X13580250Y-14033500D01*
X13430250Y-15788500D02*
X13430250Y-16088500D01*
X13280250Y-15938500D02*
X13580250Y-15938500D01*
X14065250Y-7914500D02*
X14065250Y-8214500D01*
X13915250Y-8064500D02*
X14215250Y-8064500D01*
X14065250Y-9819500D02*
X14065250Y-10119500D01*
X13915250Y-9969500D02*
X14215250Y-9969500D01*
X14065250Y-11724500D02*
X14065250Y-12024500D01*
X13915250Y-11874500D02*
X14215250Y-11874500D01*
X14065250Y-13629500D02*
X14065250Y-13929500D01*
X13915250Y-13779500D02*
X14215250Y-13779500D01*
X14065250Y-15534500D02*
X14065250Y-15834500D01*
X13915250Y-15684500D02*
X14215250Y-15684500D01*
X15335250Y-8168500D02*
X15335250Y-8468500D01*
X15185250Y-8318500D02*
X15485250Y-8318500D01*
X15335250Y-10073500D02*
X15335250Y-10373500D01*
X15185250Y-10223500D02*
X15485250Y-10223500D01*
X15335250Y-11978500D02*
X15335250Y-12278500D01*
X15185250Y-12128500D02*
X15485250Y-12128500D01*
X15335250Y-13883500D02*
X15335250Y-14183500D01*
X15185250Y-14033500D02*
X15485250Y-14033500D01*
X15335250Y-15788500D02*
X15335250Y-16088500D01*
X15185250Y-15938500D02*
X15485250Y-15938500D01*
X15970250Y-7914500D02*
X15970250Y-8214500D01*
X15820250Y-8064500D02*
X16120250Y-8064500D01*
X15970250Y-9819500D02*
X15970250Y-10119500D01*
X15820250Y-9969500D02*
X16120250Y-9969500D01*
X15970250Y-11724500D02*
X15970250Y-12024500D01*
X15820250Y-11874500D02*
X16120250Y-11874500D01*
X15970250Y-13629500D02*
X15970250Y-13929500D01*
X15820250Y-13779500D02*
X16120250Y-13779500D01*
X15970250Y-15534500D02*
X15970250Y-15834500D01*
X15820250Y-15684500D02*
X16120250Y-15684500D01*
D10*
X7381369Y-17626274D02*
X7381369Y-17426274D01*
X7381369Y-17426274D02*
X7428988Y-17426274D01*
X7428988Y-17426274D02*
X7457559Y-17435798D01*
X7457559Y-17435798D02*
X7476607Y-17454845D01*
X7476607Y-17454845D02*
X7486131Y-17473893D01*
X7486131Y-17473893D02*
X7495655Y-17511988D01*
X7495655Y-17511988D02*
X7495655Y-17540560D01*
X7495655Y-17540560D02*
X7486131Y-17578655D01*
X7486131Y-17578655D02*
X7476607Y-17597702D01*
X7476607Y-17597702D02*
X7457559Y-17616750D01*
X7457559Y-17616750D02*
X7428988Y-17626274D01*
X7428988Y-17626274D02*
X7381369Y-17626274D01*
X7581369Y-17626274D02*
X7581369Y-17492940D01*
X7581369Y-17531036D02*
X7590893Y-17511988D01*
X7590893Y-17511988D02*
X7600417Y-17502464D01*
X7600417Y-17502464D02*
X7619464Y-17492940D01*
X7619464Y-17492940D02*
X7638512Y-17492940D01*
X7705178Y-17626274D02*
X7705178Y-17492940D01*
X7705178Y-17426274D02*
X7695655Y-17435798D01*
X7695655Y-17435798D02*
X7705178Y-17445321D01*
X7705178Y-17445321D02*
X7714702Y-17435798D01*
X7714702Y-17435798D02*
X7705178Y-17426274D01*
X7705178Y-17426274D02*
X7705178Y-17445321D01*
X7828988Y-17626274D02*
X7809940Y-17616750D01*
X7809940Y-17616750D02*
X7800417Y-17597702D01*
X7800417Y-17597702D02*
X7800417Y-17426274D01*
X7933750Y-17626274D02*
X7914702Y-17616750D01*
X7914702Y-17616750D02*
X7905178Y-17597702D01*
X7905178Y-17597702D02*
X7905178Y-17426274D01*
X8162321Y-17626274D02*
X8162321Y-17426274D01*
X8162321Y-17426274D02*
X8228988Y-17569131D01*
X8228988Y-17569131D02*
X8295655Y-17426274D01*
X8295655Y-17426274D02*
X8295655Y-17626274D01*
X8476607Y-17626274D02*
X8476607Y-17521512D01*
X8476607Y-17521512D02*
X8467083Y-17502464D01*
X8467083Y-17502464D02*
X8448036Y-17492940D01*
X8448036Y-17492940D02*
X8409940Y-17492940D01*
X8409940Y-17492940D02*
X8390893Y-17502464D01*
X8476607Y-17616750D02*
X8457560Y-17626274D01*
X8457560Y-17626274D02*
X8409940Y-17626274D01*
X8409940Y-17626274D02*
X8390893Y-17616750D01*
X8390893Y-17616750D02*
X8381369Y-17597702D01*
X8381369Y-17597702D02*
X8381369Y-17578655D01*
X8381369Y-17578655D02*
X8390893Y-17559607D01*
X8390893Y-17559607D02*
X8409940Y-17550083D01*
X8409940Y-17550083D02*
X8457560Y-17550083D01*
X8457560Y-17550083D02*
X8476607Y-17540560D01*
X8571845Y-17492940D02*
X8571845Y-17692940D01*
X8571845Y-17502464D02*
X8590893Y-17492940D01*
X8590893Y-17492940D02*
X8628988Y-17492940D01*
X8628988Y-17492940D02*
X8648036Y-17502464D01*
X8648036Y-17502464D02*
X8657560Y-17511988D01*
X8657560Y-17511988D02*
X8667083Y-17531036D01*
X8667083Y-17531036D02*
X8667083Y-17588179D01*
X8667083Y-17588179D02*
X8657560Y-17607226D01*
X8657560Y-17607226D02*
X8648036Y-17616750D01*
X8648036Y-17616750D02*
X8628988Y-17626274D01*
X8628988Y-17626274D02*
X8590893Y-17626274D01*
X8590893Y-17626274D02*
X8571845Y-17616750D01*
X8752798Y-17607226D02*
X8762321Y-17616750D01*
X8762321Y-17616750D02*
X8752798Y-17626274D01*
X8752798Y-17626274D02*
X8743274Y-17616750D01*
X8743274Y-17616750D02*
X8752798Y-17607226D01*
X8752798Y-17607226D02*
X8752798Y-17626274D01*
X8752798Y-17502464D02*
X8762321Y-17511988D01*
X8762321Y-17511988D02*
X8752798Y-17521512D01*
X8752798Y-17521512D02*
X8743274Y-17511988D01*
X8743274Y-17511988D02*
X8752798Y-17502464D01*
X8752798Y-17502464D02*
X8752798Y-17521512D01*
D11*
X7093750Y-17933750D02*
X7133750Y-17973750D01*
X7133750Y-17933750D02*
X7093750Y-17973750D01*
D10*
X7419464Y-17846274D02*
X7438512Y-17846274D01*
X7438512Y-17846274D02*
X7457559Y-17855798D01*
X7457559Y-17855798D02*
X7467083Y-17865321D01*
X7467083Y-17865321D02*
X7476607Y-17884369D01*
X7476607Y-17884369D02*
X7486131Y-17922464D01*
X7486131Y-17922464D02*
X7486131Y-17970083D01*
X7486131Y-17970083D02*
X7476607Y-18008179D01*
X7476607Y-18008179D02*
X7467083Y-18027226D01*
X7467083Y-18027226D02*
X7457559Y-18036750D01*
X7457559Y-18036750D02*
X7438512Y-18046274D01*
X7438512Y-18046274D02*
X7419464Y-18046274D01*
X7419464Y-18046274D02*
X7400417Y-18036750D01*
X7400417Y-18036750D02*
X7390893Y-18027226D01*
X7390893Y-18027226D02*
X7381369Y-18008179D01*
X7381369Y-18008179D02*
X7371845Y-17970083D01*
X7371845Y-17970083D02*
X7371845Y-17922464D01*
X7371845Y-17922464D02*
X7381369Y-17884369D01*
X7381369Y-17884369D02*
X7390893Y-17865321D01*
X7390893Y-17865321D02*
X7400417Y-17855798D01*
X7400417Y-17855798D02*
X7419464Y-17846274D01*
X7571845Y-18027226D02*
X7581369Y-18036750D01*
X7581369Y-18036750D02*
X7571845Y-18046274D01*
X7571845Y-18046274D02*
X7562321Y-18036750D01*
X7562321Y-18036750D02*
X7571845Y-18027226D01*
X7571845Y-18027226D02*
X7571845Y-18046274D01*
X7752798Y-17912940D02*
X7752798Y-18046274D01*
X7705178Y-17836750D02*
X7657559Y-17979607D01*
X7657559Y-17979607D02*
X7781369Y-17979607D01*
X7895655Y-17846274D02*
X7914702Y-17846274D01*
X7914702Y-17846274D02*
X7933750Y-17855798D01*
X7933750Y-17855798D02*
X7943274Y-17865321D01*
X7943274Y-17865321D02*
X7952798Y-17884369D01*
X7952798Y-17884369D02*
X7962321Y-17922464D01*
X7962321Y-17922464D02*
X7962321Y-17970083D01*
X7962321Y-17970083D02*
X7952798Y-18008179D01*
X7952798Y-18008179D02*
X7943274Y-18027226D01*
X7943274Y-18027226D02*
X7933750Y-18036750D01*
X7933750Y-18036750D02*
X7914702Y-18046274D01*
X7914702Y-18046274D02*
X7895655Y-18046274D01*
X7895655Y-18046274D02*
X7876607Y-18036750D01*
X7876607Y-18036750D02*
X7867083Y-18027226D01*
X7867083Y-18027226D02*
X7857559Y-18008179D01*
X7857559Y-18008179D02*
X7848036Y-17970083D01*
X7848036Y-17970083D02*
X7848036Y-17922464D01*
X7848036Y-17922464D02*
X7857559Y-17884369D01*
X7857559Y-17884369D02*
X7867083Y-17865321D01*
X7867083Y-17865321D02*
X7876607Y-17855798D01*
X7876607Y-17855798D02*
X7895655Y-17846274D01*
X8086131Y-17846274D02*
X8105179Y-17846274D01*
X8105179Y-17846274D02*
X8124226Y-17855798D01*
X8124226Y-17855798D02*
X8133750Y-17865321D01*
X8133750Y-17865321D02*
X8143274Y-17884369D01*
X8143274Y-17884369D02*
X8152798Y-17922464D01*
X8152798Y-17922464D02*
X8152798Y-17970083D01*
X8152798Y-17970083D02*
X8143274Y-18008179D01*
X8143274Y-18008179D02*
X8133750Y-18027226D01*
X8133750Y-18027226D02*
X8124226Y-18036750D01*
X8124226Y-18036750D02*
X8105179Y-18046274D01*
X8105179Y-18046274D02*
X8086131Y-18046274D01*
X8086131Y-18046274D02*
X8067083Y-18036750D01*
X8067083Y-18036750D02*
X8057559Y-18027226D01*
X8057559Y-18027226D02*
X8048036Y-18008179D01*
X8048036Y-18008179D02*
X8038512Y-17970083D01*
X8038512Y-17970083D02*
X8038512Y-17922464D01*
X8038512Y-17922464D02*
X8048036Y-17884369D01*
X8048036Y-17884369D02*
X8057559Y-17865321D01*
X8057559Y-17865321D02*
X8067083Y-17855798D01*
X8067083Y-17855798D02*
X8086131Y-17846274D01*
X8238512Y-18046274D02*
X8238512Y-17912940D01*
X8238512Y-17931988D02*
X8248036Y-17922464D01*
X8248036Y-17922464D02*
X8267083Y-17912940D01*
X8267083Y-17912940D02*
X8295655Y-17912940D01*
X8295655Y-17912940D02*
X8314702Y-17922464D01*
X8314702Y-17922464D02*
X8324226Y-17941512D01*
X8324226Y-17941512D02*
X8324226Y-18046274D01*
X8324226Y-17941512D02*
X8333750Y-17922464D01*
X8333750Y-17922464D02*
X8352798Y-17912940D01*
X8352798Y-17912940D02*
X8381369Y-17912940D01*
X8381369Y-17912940D02*
X8400417Y-17922464D01*
X8400417Y-17922464D02*
X8409941Y-17941512D01*
X8409941Y-17941512D02*
X8409941Y-18046274D01*
X8505179Y-18046274D02*
X8505179Y-17912940D01*
X8505179Y-17931988D02*
X8514702Y-17922464D01*
X8514702Y-17922464D02*
X8533750Y-17912940D01*
X8533750Y-17912940D02*
X8562322Y-17912940D01*
X8562322Y-17912940D02*
X8581369Y-17922464D01*
X8581369Y-17922464D02*
X8590893Y-17941512D01*
X8590893Y-17941512D02*
X8590893Y-18046274D01*
X8590893Y-17941512D02*
X8600417Y-17922464D01*
X8600417Y-17922464D02*
X8619464Y-17912940D01*
X8619464Y-17912940D02*
X8648036Y-17912940D01*
X8648036Y-17912940D02*
X8667083Y-17922464D01*
X8667083Y-17922464D02*
X8676607Y-17941512D01*
X8676607Y-17941512D02*
X8676607Y-18046274D01*
X9067083Y-17836750D02*
X8895655Y-18093893D01*
X9324226Y-17846274D02*
X9343274Y-17846274D01*
X9343274Y-17846274D02*
X9362322Y-17855798D01*
X9362322Y-17855798D02*
X9371845Y-17865321D01*
X9371845Y-17865321D02*
X9381369Y-17884369D01*
X9381369Y-17884369D02*
X9390893Y-17922464D01*
X9390893Y-17922464D02*
X9390893Y-17970083D01*
X9390893Y-17970083D02*
X9381369Y-18008179D01*
X9381369Y-18008179D02*
X9371845Y-18027226D01*
X9371845Y-18027226D02*
X9362322Y-18036750D01*
X9362322Y-18036750D02*
X9343274Y-18046274D01*
X9343274Y-18046274D02*
X9324226Y-18046274D01*
X9324226Y-18046274D02*
X9305179Y-18036750D01*
X9305179Y-18036750D02*
X9295655Y-18027226D01*
X9295655Y-18027226D02*
X9286131Y-18008179D01*
X9286131Y-18008179D02*
X9276607Y-17970083D01*
X9276607Y-17970083D02*
X9276607Y-17922464D01*
X9276607Y-17922464D02*
X9286131Y-17884369D01*
X9286131Y-17884369D02*
X9295655Y-17865321D01*
X9295655Y-17865321D02*
X9305179Y-17855798D01*
X9305179Y-17855798D02*
X9324226Y-17846274D01*
X9476607Y-18027226D02*
X9486131Y-18036750D01*
X9486131Y-18036750D02*
X9476607Y-18046274D01*
X9476607Y-18046274D02*
X9467084Y-18036750D01*
X9467084Y-18036750D02*
X9476607Y-18027226D01*
X9476607Y-18027226D02*
X9476607Y-18046274D01*
X9609941Y-17846274D02*
X9628988Y-17846274D01*
X9628988Y-17846274D02*
X9648036Y-17855798D01*
X9648036Y-17855798D02*
X9657560Y-17865321D01*
X9657560Y-17865321D02*
X9667084Y-17884369D01*
X9667084Y-17884369D02*
X9676607Y-17922464D01*
X9676607Y-17922464D02*
X9676607Y-17970083D01*
X9676607Y-17970083D02*
X9667084Y-18008179D01*
X9667084Y-18008179D02*
X9657560Y-18027226D01*
X9657560Y-18027226D02*
X9648036Y-18036750D01*
X9648036Y-18036750D02*
X9628988Y-18046274D01*
X9628988Y-18046274D02*
X9609941Y-18046274D01*
X9609941Y-18046274D02*
X9590893Y-18036750D01*
X9590893Y-18036750D02*
X9581369Y-18027226D01*
X9581369Y-18027226D02*
X9571845Y-18008179D01*
X9571845Y-18008179D02*
X9562322Y-17970083D01*
X9562322Y-17970083D02*
X9562322Y-17922464D01*
X9562322Y-17922464D02*
X9571845Y-17884369D01*
X9571845Y-17884369D02*
X9581369Y-17865321D01*
X9581369Y-17865321D02*
X9590893Y-17855798D01*
X9590893Y-17855798D02*
X9609941Y-17846274D01*
X9867084Y-18046274D02*
X9752798Y-18046274D01*
X9809941Y-18046274D02*
X9809941Y-17846274D01*
X9809941Y-17846274D02*
X9790893Y-17874845D01*
X9790893Y-17874845D02*
X9771845Y-17893893D01*
X9771845Y-17893893D02*
X9752798Y-17903417D01*
X10048036Y-17846274D02*
X9952798Y-17846274D01*
X9952798Y-17846274D02*
X9943274Y-17941512D01*
X9943274Y-17941512D02*
X9952798Y-17931988D01*
X9952798Y-17931988D02*
X9971845Y-17922464D01*
X9971845Y-17922464D02*
X10019465Y-17922464D01*
X10019465Y-17922464D02*
X10038512Y-17931988D01*
X10038512Y-17931988D02*
X10048036Y-17941512D01*
X10048036Y-17941512D02*
X10057560Y-17960560D01*
X10057560Y-17960560D02*
X10057560Y-18008179D01*
X10057560Y-18008179D02*
X10048036Y-18027226D01*
X10048036Y-18027226D02*
X10038512Y-18036750D01*
X10038512Y-18036750D02*
X10019465Y-18046274D01*
X10019465Y-18046274D02*
X9971845Y-18046274D01*
X9971845Y-18046274D02*
X9952798Y-18036750D01*
X9952798Y-18036750D02*
X9943274Y-18027226D01*
X10124226Y-17846274D02*
X10257560Y-17846274D01*
X10257560Y-17846274D02*
X10171845Y-18046274D01*
X10324226Y-17846274D02*
X10324226Y-17884369D01*
X10400417Y-17846274D02*
X10400417Y-17884369D01*
X10695655Y-18122464D02*
X10686131Y-18112940D01*
X10686131Y-18112940D02*
X10667084Y-18084369D01*
X10667084Y-18084369D02*
X10657560Y-18065321D01*
X10657560Y-18065321D02*
X10648036Y-18036750D01*
X10648036Y-18036750D02*
X10638512Y-17989131D01*
X10638512Y-17989131D02*
X10638512Y-17951036D01*
X10638512Y-17951036D02*
X10648036Y-17903417D01*
X10648036Y-17903417D02*
X10657560Y-17874845D01*
X10657560Y-17874845D02*
X10667084Y-17855798D01*
X10667084Y-17855798D02*
X10686131Y-17827226D01*
X10686131Y-17827226D02*
X10695655Y-17817702D01*
X10857560Y-17846274D02*
X10819465Y-17846274D01*
X10819465Y-17846274D02*
X10800417Y-17855798D01*
X10800417Y-17855798D02*
X10790893Y-17865321D01*
X10790893Y-17865321D02*
X10771846Y-17893893D01*
X10771846Y-17893893D02*
X10762322Y-17931988D01*
X10762322Y-17931988D02*
X10762322Y-18008179D01*
X10762322Y-18008179D02*
X10771846Y-18027226D01*
X10771846Y-18027226D02*
X10781369Y-18036750D01*
X10781369Y-18036750D02*
X10800417Y-18046274D01*
X10800417Y-18046274D02*
X10838512Y-18046274D01*
X10838512Y-18046274D02*
X10857560Y-18036750D01*
X10857560Y-18036750D02*
X10867084Y-18027226D01*
X10867084Y-18027226D02*
X10876607Y-18008179D01*
X10876607Y-18008179D02*
X10876607Y-17960560D01*
X10876607Y-17960560D02*
X10867084Y-17941512D01*
X10867084Y-17941512D02*
X10857560Y-17931988D01*
X10857560Y-17931988D02*
X10838512Y-17922464D01*
X10838512Y-17922464D02*
X10800417Y-17922464D01*
X10800417Y-17922464D02*
X10781369Y-17931988D01*
X10781369Y-17931988D02*
X10771846Y-17941512D01*
X10771846Y-17941512D02*
X10762322Y-17960560D01*
X11000417Y-17846274D02*
X11019465Y-17846274D01*
X11019465Y-17846274D02*
X11038512Y-17855798D01*
X11038512Y-17855798D02*
X11048036Y-17865321D01*
X11048036Y-17865321D02*
X11057560Y-17884369D01*
X11057560Y-17884369D02*
X11067084Y-17922464D01*
X11067084Y-17922464D02*
X11067084Y-17970083D01*
X11067084Y-17970083D02*
X11057560Y-18008179D01*
X11057560Y-18008179D02*
X11048036Y-18027226D01*
X11048036Y-18027226D02*
X11038512Y-18036750D01*
X11038512Y-18036750D02*
X11019465Y-18046274D01*
X11019465Y-18046274D02*
X11000417Y-18046274D01*
X11000417Y-18046274D02*
X10981369Y-18036750D01*
X10981369Y-18036750D02*
X10971846Y-18027226D01*
X10971846Y-18027226D02*
X10962322Y-18008179D01*
X10962322Y-18008179D02*
X10952798Y-17970083D01*
X10952798Y-17970083D02*
X10952798Y-17922464D01*
X10952798Y-17922464D02*
X10962322Y-17884369D01*
X10962322Y-17884369D02*
X10971846Y-17865321D01*
X10971846Y-17865321D02*
X10981369Y-17855798D01*
X10981369Y-17855798D02*
X11000417Y-17846274D01*
X11305179Y-18046274D02*
X11305179Y-17846274D01*
X11390893Y-18046274D02*
X11390893Y-17941512D01*
X11390893Y-17941512D02*
X11381369Y-17922464D01*
X11381369Y-17922464D02*
X11362322Y-17912940D01*
X11362322Y-17912940D02*
X11333750Y-17912940D01*
X11333750Y-17912940D02*
X11314703Y-17922464D01*
X11314703Y-17922464D02*
X11305179Y-17931988D01*
X11514703Y-18046274D02*
X11495655Y-18036750D01*
X11495655Y-18036750D02*
X11486131Y-18027226D01*
X11486131Y-18027226D02*
X11476607Y-18008179D01*
X11476607Y-18008179D02*
X11476607Y-17951036D01*
X11476607Y-17951036D02*
X11486131Y-17931988D01*
X11486131Y-17931988D02*
X11495655Y-17922464D01*
X11495655Y-17922464D02*
X11514703Y-17912940D01*
X11514703Y-17912940D02*
X11543274Y-17912940D01*
X11543274Y-17912940D02*
X11562322Y-17922464D01*
X11562322Y-17922464D02*
X11571846Y-17931988D01*
X11571846Y-17931988D02*
X11581369Y-17951036D01*
X11581369Y-17951036D02*
X11581369Y-18008179D01*
X11581369Y-18008179D02*
X11571846Y-18027226D01*
X11571846Y-18027226D02*
X11562322Y-18036750D01*
X11562322Y-18036750D02*
X11543274Y-18046274D01*
X11543274Y-18046274D02*
X11514703Y-18046274D01*
X11695655Y-18046274D02*
X11676607Y-18036750D01*
X11676607Y-18036750D02*
X11667084Y-18017702D01*
X11667084Y-18017702D02*
X11667084Y-17846274D01*
X11848036Y-18036750D02*
X11828988Y-18046274D01*
X11828988Y-18046274D02*
X11790893Y-18046274D01*
X11790893Y-18046274D02*
X11771846Y-18036750D01*
X11771846Y-18036750D02*
X11762322Y-18017702D01*
X11762322Y-18017702D02*
X11762322Y-17941512D01*
X11762322Y-17941512D02*
X11771846Y-17922464D01*
X11771846Y-17922464D02*
X11790893Y-17912940D01*
X11790893Y-17912940D02*
X11828988Y-17912940D01*
X11828988Y-17912940D02*
X11848036Y-17922464D01*
X11848036Y-17922464D02*
X11857560Y-17941512D01*
X11857560Y-17941512D02*
X11857560Y-17960560D01*
X11857560Y-17960560D02*
X11762322Y-17979607D01*
X11933750Y-18036750D02*
X11952798Y-18046274D01*
X11952798Y-18046274D02*
X11990893Y-18046274D01*
X11990893Y-18046274D02*
X12009941Y-18036750D01*
X12009941Y-18036750D02*
X12019465Y-18017702D01*
X12019465Y-18017702D02*
X12019465Y-18008179D01*
X12019465Y-18008179D02*
X12009941Y-17989131D01*
X12009941Y-17989131D02*
X11990893Y-17979607D01*
X11990893Y-17979607D02*
X11962322Y-17979607D01*
X11962322Y-17979607D02*
X11943274Y-17970083D01*
X11943274Y-17970083D02*
X11933750Y-17951036D01*
X11933750Y-17951036D02*
X11933750Y-17941512D01*
X11933750Y-17941512D02*
X11943274Y-17922464D01*
X11943274Y-17922464D02*
X11962322Y-17912940D01*
X11962322Y-17912940D02*
X11990893Y-17912940D01*
X11990893Y-17912940D02*
X12009941Y-17922464D01*
X12086131Y-18122464D02*
X12095655Y-18112940D01*
X12095655Y-18112940D02*
X12114703Y-18084369D01*
X12114703Y-18084369D02*
X12124227Y-18065321D01*
X12124227Y-18065321D02*
X12133750Y-18036750D01*
X12133750Y-18036750D02*
X12143274Y-17989131D01*
X12143274Y-17989131D02*
X12143274Y-17951036D01*
X12143274Y-17951036D02*
X12133750Y-17903417D01*
X12133750Y-17903417D02*
X12124227Y-17874845D01*
X12124227Y-17874845D02*
X12114703Y-17855798D01*
X12114703Y-17855798D02*
X12095655Y-17827226D01*
X12095655Y-17827226D02*
X12086131Y-17817702D01*
D12*
X7133750Y-18217750D02*
G75*
G03*
X7133750Y-18217750I-51000J0D01*
G01*
D10*
X7486131Y-18310274D02*
X7371845Y-18310274D01*
X7428988Y-18310274D02*
X7428988Y-18110274D01*
X7428988Y-18110274D02*
X7409940Y-18138845D01*
X7409940Y-18138845D02*
X7390893Y-18157893D01*
X7390893Y-18157893D02*
X7371845Y-18167417D01*
X7571845Y-18291226D02*
X7581369Y-18300750D01*
X7581369Y-18300750D02*
X7571845Y-18310274D01*
X7571845Y-18310274D02*
X7562321Y-18300750D01*
X7562321Y-18300750D02*
X7571845Y-18291226D01*
X7571845Y-18291226D02*
X7571845Y-18310274D01*
X7705178Y-18110274D02*
X7724226Y-18110274D01*
X7724226Y-18110274D02*
X7743274Y-18119798D01*
X7743274Y-18119798D02*
X7752798Y-18129321D01*
X7752798Y-18129321D02*
X7762321Y-18148369D01*
X7762321Y-18148369D02*
X7771845Y-18186464D01*
X7771845Y-18186464D02*
X7771845Y-18234083D01*
X7771845Y-18234083D02*
X7762321Y-18272179D01*
X7762321Y-18272179D02*
X7752798Y-18291226D01*
X7752798Y-18291226D02*
X7743274Y-18300750D01*
X7743274Y-18300750D02*
X7724226Y-18310274D01*
X7724226Y-18310274D02*
X7705178Y-18310274D01*
X7705178Y-18310274D02*
X7686131Y-18300750D01*
X7686131Y-18300750D02*
X7676607Y-18291226D01*
X7676607Y-18291226D02*
X7667083Y-18272179D01*
X7667083Y-18272179D02*
X7657559Y-18234083D01*
X7657559Y-18234083D02*
X7657559Y-18186464D01*
X7657559Y-18186464D02*
X7667083Y-18148369D01*
X7667083Y-18148369D02*
X7676607Y-18129321D01*
X7676607Y-18129321D02*
X7686131Y-18119798D01*
X7686131Y-18119798D02*
X7705178Y-18110274D01*
X7848036Y-18129321D02*
X7857559Y-18119798D01*
X7857559Y-18119798D02*
X7876607Y-18110274D01*
X7876607Y-18110274D02*
X7924226Y-18110274D01*
X7924226Y-18110274D02*
X7943274Y-18119798D01*
X7943274Y-18119798D02*
X7952798Y-18129321D01*
X7952798Y-18129321D02*
X7962321Y-18148369D01*
X7962321Y-18148369D02*
X7962321Y-18167417D01*
X7962321Y-18167417D02*
X7952798Y-18195988D01*
X7952798Y-18195988D02*
X7838512Y-18310274D01*
X7838512Y-18310274D02*
X7962321Y-18310274D01*
X8086131Y-18110274D02*
X8105179Y-18110274D01*
X8105179Y-18110274D02*
X8124226Y-18119798D01*
X8124226Y-18119798D02*
X8133750Y-18129321D01*
X8133750Y-18129321D02*
X8143274Y-18148369D01*
X8143274Y-18148369D02*
X8152798Y-18186464D01*
X8152798Y-18186464D02*
X8152798Y-18234083D01*
X8152798Y-18234083D02*
X8143274Y-18272179D01*
X8143274Y-18272179D02*
X8133750Y-18291226D01*
X8133750Y-18291226D02*
X8124226Y-18300750D01*
X8124226Y-18300750D02*
X8105179Y-18310274D01*
X8105179Y-18310274D02*
X8086131Y-18310274D01*
X8086131Y-18310274D02*
X8067083Y-18300750D01*
X8067083Y-18300750D02*
X8057559Y-18291226D01*
X8057559Y-18291226D02*
X8048036Y-18272179D01*
X8048036Y-18272179D02*
X8038512Y-18234083D01*
X8038512Y-18234083D02*
X8038512Y-18186464D01*
X8038512Y-18186464D02*
X8048036Y-18148369D01*
X8048036Y-18148369D02*
X8057559Y-18129321D01*
X8057559Y-18129321D02*
X8067083Y-18119798D01*
X8067083Y-18119798D02*
X8086131Y-18110274D01*
X8238512Y-18310274D02*
X8238512Y-18176940D01*
X8238512Y-18195988D02*
X8248036Y-18186464D01*
X8248036Y-18186464D02*
X8267083Y-18176940D01*
X8267083Y-18176940D02*
X8295655Y-18176940D01*
X8295655Y-18176940D02*
X8314702Y-18186464D01*
X8314702Y-18186464D02*
X8324226Y-18205512D01*
X8324226Y-18205512D02*
X8324226Y-18310274D01*
X8324226Y-18205512D02*
X8333750Y-18186464D01*
X8333750Y-18186464D02*
X8352798Y-18176940D01*
X8352798Y-18176940D02*
X8381369Y-18176940D01*
X8381369Y-18176940D02*
X8400417Y-18186464D01*
X8400417Y-18186464D02*
X8409941Y-18205512D01*
X8409941Y-18205512D02*
X8409941Y-18310274D01*
X8505179Y-18310274D02*
X8505179Y-18176940D01*
X8505179Y-18195988D02*
X8514702Y-18186464D01*
X8514702Y-18186464D02*
X8533750Y-18176940D01*
X8533750Y-18176940D02*
X8562322Y-18176940D01*
X8562322Y-18176940D02*
X8581369Y-18186464D01*
X8581369Y-18186464D02*
X8590893Y-18205512D01*
X8590893Y-18205512D02*
X8590893Y-18310274D01*
X8590893Y-18205512D02*
X8600417Y-18186464D01*
X8600417Y-18186464D02*
X8619464Y-18176940D01*
X8619464Y-18176940D02*
X8648036Y-18176940D01*
X8648036Y-18176940D02*
X8667083Y-18186464D01*
X8667083Y-18186464D02*
X8676607Y-18205512D01*
X8676607Y-18205512D02*
X8676607Y-18310274D01*
X9067083Y-18100750D02*
X8895655Y-18357893D01*
X9324226Y-18110274D02*
X9343274Y-18110274D01*
X9343274Y-18110274D02*
X9362322Y-18119798D01*
X9362322Y-18119798D02*
X9371845Y-18129321D01*
X9371845Y-18129321D02*
X9381369Y-18148369D01*
X9381369Y-18148369D02*
X9390893Y-18186464D01*
X9390893Y-18186464D02*
X9390893Y-18234083D01*
X9390893Y-18234083D02*
X9381369Y-18272179D01*
X9381369Y-18272179D02*
X9371845Y-18291226D01*
X9371845Y-18291226D02*
X9362322Y-18300750D01*
X9362322Y-18300750D02*
X9343274Y-18310274D01*
X9343274Y-18310274D02*
X9324226Y-18310274D01*
X9324226Y-18310274D02*
X9305179Y-18300750D01*
X9305179Y-18300750D02*
X9295655Y-18291226D01*
X9295655Y-18291226D02*
X9286131Y-18272179D01*
X9286131Y-18272179D02*
X9276607Y-18234083D01*
X9276607Y-18234083D02*
X9276607Y-18186464D01*
X9276607Y-18186464D02*
X9286131Y-18148369D01*
X9286131Y-18148369D02*
X9295655Y-18129321D01*
X9295655Y-18129321D02*
X9305179Y-18119798D01*
X9305179Y-18119798D02*
X9324226Y-18110274D01*
X9476607Y-18291226D02*
X9486131Y-18300750D01*
X9486131Y-18300750D02*
X9476607Y-18310274D01*
X9476607Y-18310274D02*
X9467084Y-18300750D01*
X9467084Y-18300750D02*
X9476607Y-18291226D01*
X9476607Y-18291226D02*
X9476607Y-18310274D01*
X9609941Y-18110274D02*
X9628988Y-18110274D01*
X9628988Y-18110274D02*
X9648036Y-18119798D01*
X9648036Y-18119798D02*
X9657560Y-18129321D01*
X9657560Y-18129321D02*
X9667084Y-18148369D01*
X9667084Y-18148369D02*
X9676607Y-18186464D01*
X9676607Y-18186464D02*
X9676607Y-18234083D01*
X9676607Y-18234083D02*
X9667084Y-18272179D01*
X9667084Y-18272179D02*
X9657560Y-18291226D01*
X9657560Y-18291226D02*
X9648036Y-18300750D01*
X9648036Y-18300750D02*
X9628988Y-18310274D01*
X9628988Y-18310274D02*
X9609941Y-18310274D01*
X9609941Y-18310274D02*
X9590893Y-18300750D01*
X9590893Y-18300750D02*
X9581369Y-18291226D01*
X9581369Y-18291226D02*
X9571845Y-18272179D01*
X9571845Y-18272179D02*
X9562322Y-18234083D01*
X9562322Y-18234083D02*
X9562322Y-18186464D01*
X9562322Y-18186464D02*
X9571845Y-18148369D01*
X9571845Y-18148369D02*
X9581369Y-18129321D01*
X9581369Y-18129321D02*
X9590893Y-18119798D01*
X9590893Y-18119798D02*
X9609941Y-18110274D01*
X9848036Y-18176940D02*
X9848036Y-18310274D01*
X9800417Y-18100750D02*
X9752798Y-18243607D01*
X9752798Y-18243607D02*
X9876607Y-18243607D01*
X9990893Y-18110274D02*
X10009941Y-18110274D01*
X10009941Y-18110274D02*
X10028988Y-18119798D01*
X10028988Y-18119798D02*
X10038512Y-18129321D01*
X10038512Y-18129321D02*
X10048036Y-18148369D01*
X10048036Y-18148369D02*
X10057560Y-18186464D01*
X10057560Y-18186464D02*
X10057560Y-18234083D01*
X10057560Y-18234083D02*
X10048036Y-18272179D01*
X10048036Y-18272179D02*
X10038512Y-18291226D01*
X10038512Y-18291226D02*
X10028988Y-18300750D01*
X10028988Y-18300750D02*
X10009941Y-18310274D01*
X10009941Y-18310274D02*
X9990893Y-18310274D01*
X9990893Y-18310274D02*
X9971845Y-18300750D01*
X9971845Y-18300750D02*
X9962322Y-18291226D01*
X9962322Y-18291226D02*
X9952798Y-18272179D01*
X9952798Y-18272179D02*
X9943274Y-18234083D01*
X9943274Y-18234083D02*
X9943274Y-18186464D01*
X9943274Y-18186464D02*
X9952798Y-18148369D01*
X9952798Y-18148369D02*
X9962322Y-18129321D01*
X9962322Y-18129321D02*
X9971845Y-18119798D01*
X9971845Y-18119798D02*
X9990893Y-18110274D01*
X10133750Y-18129321D02*
X10143274Y-18119798D01*
X10143274Y-18119798D02*
X10162322Y-18110274D01*
X10162322Y-18110274D02*
X10209941Y-18110274D01*
X10209941Y-18110274D02*
X10228988Y-18119798D01*
X10228988Y-18119798D02*
X10238512Y-18129321D01*
X10238512Y-18129321D02*
X10248036Y-18148369D01*
X10248036Y-18148369D02*
X10248036Y-18167417D01*
X10248036Y-18167417D02*
X10238512Y-18195988D01*
X10238512Y-18195988D02*
X10124226Y-18310274D01*
X10124226Y-18310274D02*
X10248036Y-18310274D01*
X10324226Y-18110274D02*
X10324226Y-18148369D01*
X10400417Y-18110274D02*
X10400417Y-18148369D01*
X10695655Y-18386464D02*
X10686131Y-18376940D01*
X10686131Y-18376940D02*
X10667084Y-18348369D01*
X10667084Y-18348369D02*
X10657560Y-18329321D01*
X10657560Y-18329321D02*
X10648036Y-18300750D01*
X10648036Y-18300750D02*
X10638512Y-18253131D01*
X10638512Y-18253131D02*
X10638512Y-18215036D01*
X10638512Y-18215036D02*
X10648036Y-18167417D01*
X10648036Y-18167417D02*
X10657560Y-18138845D01*
X10657560Y-18138845D02*
X10667084Y-18119798D01*
X10667084Y-18119798D02*
X10686131Y-18091226D01*
X10686131Y-18091226D02*
X10695655Y-18081702D01*
X10857560Y-18176940D02*
X10857560Y-18310274D01*
X10809941Y-18100750D02*
X10762322Y-18243607D01*
X10762322Y-18243607D02*
X10886131Y-18243607D01*
X10943274Y-18110274D02*
X11067084Y-18110274D01*
X11067084Y-18110274D02*
X11000417Y-18186464D01*
X11000417Y-18186464D02*
X11028988Y-18186464D01*
X11028988Y-18186464D02*
X11048036Y-18195988D01*
X11048036Y-18195988D02*
X11057560Y-18205512D01*
X11057560Y-18205512D02*
X11067084Y-18224560D01*
X11067084Y-18224560D02*
X11067084Y-18272179D01*
X11067084Y-18272179D02*
X11057560Y-18291226D01*
X11057560Y-18291226D02*
X11048036Y-18300750D01*
X11048036Y-18300750D02*
X11028988Y-18310274D01*
X11028988Y-18310274D02*
X10971846Y-18310274D01*
X10971846Y-18310274D02*
X10952798Y-18300750D01*
X10952798Y-18300750D02*
X10943274Y-18291226D01*
X11305179Y-18310274D02*
X11305179Y-18110274D01*
X11390893Y-18310274D02*
X11390893Y-18205512D01*
X11390893Y-18205512D02*
X11381369Y-18186464D01*
X11381369Y-18186464D02*
X11362322Y-18176940D01*
X11362322Y-18176940D02*
X11333750Y-18176940D01*
X11333750Y-18176940D02*
X11314703Y-18186464D01*
X11314703Y-18186464D02*
X11305179Y-18195988D01*
X11514703Y-18310274D02*
X11495655Y-18300750D01*
X11495655Y-18300750D02*
X11486131Y-18291226D01*
X11486131Y-18291226D02*
X11476607Y-18272179D01*
X11476607Y-18272179D02*
X11476607Y-18215036D01*
X11476607Y-18215036D02*
X11486131Y-18195988D01*
X11486131Y-18195988D02*
X11495655Y-18186464D01*
X11495655Y-18186464D02*
X11514703Y-18176940D01*
X11514703Y-18176940D02*
X11543274Y-18176940D01*
X11543274Y-18176940D02*
X11562322Y-18186464D01*
X11562322Y-18186464D02*
X11571846Y-18195988D01*
X11571846Y-18195988D02*
X11581369Y-18215036D01*
X11581369Y-18215036D02*
X11581369Y-18272179D01*
X11581369Y-18272179D02*
X11571846Y-18291226D01*
X11571846Y-18291226D02*
X11562322Y-18300750D01*
X11562322Y-18300750D02*
X11543274Y-18310274D01*
X11543274Y-18310274D02*
X11514703Y-18310274D01*
X11695655Y-18310274D02*
X11676607Y-18300750D01*
X11676607Y-18300750D02*
X11667084Y-18281702D01*
X11667084Y-18281702D02*
X11667084Y-18110274D01*
X11848036Y-18300750D02*
X11828988Y-18310274D01*
X11828988Y-18310274D02*
X11790893Y-18310274D01*
X11790893Y-18310274D02*
X11771846Y-18300750D01*
X11771846Y-18300750D02*
X11762322Y-18281702D01*
X11762322Y-18281702D02*
X11762322Y-18205512D01*
X11762322Y-18205512D02*
X11771846Y-18186464D01*
X11771846Y-18186464D02*
X11790893Y-18176940D01*
X11790893Y-18176940D02*
X11828988Y-18176940D01*
X11828988Y-18176940D02*
X11848036Y-18186464D01*
X11848036Y-18186464D02*
X11857560Y-18205512D01*
X11857560Y-18205512D02*
X11857560Y-18224560D01*
X11857560Y-18224560D02*
X11762322Y-18243607D01*
X11933750Y-18300750D02*
X11952798Y-18310274D01*
X11952798Y-18310274D02*
X11990893Y-18310274D01*
X11990893Y-18310274D02*
X12009941Y-18300750D01*
X12009941Y-18300750D02*
X12019465Y-18281702D01*
X12019465Y-18281702D02*
X12019465Y-18272179D01*
X12019465Y-18272179D02*
X12009941Y-18253131D01*
X12009941Y-18253131D02*
X11990893Y-18243607D01*
X11990893Y-18243607D02*
X11962322Y-18243607D01*
X11962322Y-18243607D02*
X11943274Y-18234083D01*
X11943274Y-18234083D02*
X11933750Y-18215036D01*
X11933750Y-18215036D02*
X11933750Y-18205512D01*
X11933750Y-18205512D02*
X11943274Y-18186464D01*
X11943274Y-18186464D02*
X11962322Y-18176940D01*
X11962322Y-18176940D02*
X11990893Y-18176940D01*
X11990893Y-18176940D02*
X12009941Y-18186464D01*
X12086131Y-18386464D02*
X12095655Y-18376940D01*
X12095655Y-18376940D02*
X12114703Y-18348369D01*
X12114703Y-18348369D02*
X12124227Y-18329321D01*
X12124227Y-18329321D02*
X12133750Y-18300750D01*
X12133750Y-18300750D02*
X12143274Y-18253131D01*
X12143274Y-18253131D02*
X12143274Y-18215036D01*
X12143274Y-18215036D02*
X12133750Y-18167417D01*
X12133750Y-18167417D02*
X12124227Y-18138845D01*
X12124227Y-18138845D02*
X12114703Y-18119798D01*
X12114703Y-18119798D02*
X12095655Y-18091226D01*
X12095655Y-18091226D02*
X12086131Y-18081702D01*
X7033750Y-18381750D02*
X7033750Y-18581750D01*
X6933750Y-18481750D02*
X7133750Y-18481750D01*
X7362321Y-18374274D02*
X7486131Y-18374274D01*
X7486131Y-18374274D02*
X7419464Y-18450464D01*
X7419464Y-18450464D02*
X7448036Y-18450464D01*
X7448036Y-18450464D02*
X7467083Y-18459988D01*
X7467083Y-18459988D02*
X7476607Y-18469512D01*
X7476607Y-18469512D02*
X7486131Y-18488560D01*
X7486131Y-18488560D02*
X7486131Y-18536179D01*
X7486131Y-18536179D02*
X7476607Y-18555226D01*
X7476607Y-18555226D02*
X7467083Y-18564750D01*
X7467083Y-18564750D02*
X7448036Y-18574274D01*
X7448036Y-18574274D02*
X7390893Y-18574274D01*
X7390893Y-18574274D02*
X7371845Y-18564750D01*
X7371845Y-18564750D02*
X7362321Y-18555226D01*
X7571845Y-18555226D02*
X7581369Y-18564750D01*
X7581369Y-18564750D02*
X7571845Y-18574274D01*
X7571845Y-18574274D02*
X7562321Y-18564750D01*
X7562321Y-18564750D02*
X7571845Y-18555226D01*
X7571845Y-18555226D02*
X7571845Y-18574274D01*
X7705178Y-18374274D02*
X7724226Y-18374274D01*
X7724226Y-18374274D02*
X7743274Y-18383798D01*
X7743274Y-18383798D02*
X7752798Y-18393321D01*
X7752798Y-18393321D02*
X7762321Y-18412369D01*
X7762321Y-18412369D02*
X7771845Y-18450464D01*
X7771845Y-18450464D02*
X7771845Y-18498083D01*
X7771845Y-18498083D02*
X7762321Y-18536179D01*
X7762321Y-18536179D02*
X7752798Y-18555226D01*
X7752798Y-18555226D02*
X7743274Y-18564750D01*
X7743274Y-18564750D02*
X7724226Y-18574274D01*
X7724226Y-18574274D02*
X7705178Y-18574274D01*
X7705178Y-18574274D02*
X7686131Y-18564750D01*
X7686131Y-18564750D02*
X7676607Y-18555226D01*
X7676607Y-18555226D02*
X7667083Y-18536179D01*
X7667083Y-18536179D02*
X7657559Y-18498083D01*
X7657559Y-18498083D02*
X7657559Y-18450464D01*
X7657559Y-18450464D02*
X7667083Y-18412369D01*
X7667083Y-18412369D02*
X7676607Y-18393321D01*
X7676607Y-18393321D02*
X7686131Y-18383798D01*
X7686131Y-18383798D02*
X7705178Y-18374274D01*
X7895655Y-18374274D02*
X7914702Y-18374274D01*
X7914702Y-18374274D02*
X7933750Y-18383798D01*
X7933750Y-18383798D02*
X7943274Y-18393321D01*
X7943274Y-18393321D02*
X7952798Y-18412369D01*
X7952798Y-18412369D02*
X7962321Y-18450464D01*
X7962321Y-18450464D02*
X7962321Y-18498083D01*
X7962321Y-18498083D02*
X7952798Y-18536179D01*
X7952798Y-18536179D02*
X7943274Y-18555226D01*
X7943274Y-18555226D02*
X7933750Y-18564750D01*
X7933750Y-18564750D02*
X7914702Y-18574274D01*
X7914702Y-18574274D02*
X7895655Y-18574274D01*
X7895655Y-18574274D02*
X7876607Y-18564750D01*
X7876607Y-18564750D02*
X7867083Y-18555226D01*
X7867083Y-18555226D02*
X7857559Y-18536179D01*
X7857559Y-18536179D02*
X7848036Y-18498083D01*
X7848036Y-18498083D02*
X7848036Y-18450464D01*
X7848036Y-18450464D02*
X7857559Y-18412369D01*
X7857559Y-18412369D02*
X7867083Y-18393321D01*
X7867083Y-18393321D02*
X7876607Y-18383798D01*
X7876607Y-18383798D02*
X7895655Y-18374274D01*
X8086131Y-18374274D02*
X8105179Y-18374274D01*
X8105179Y-18374274D02*
X8124226Y-18383798D01*
X8124226Y-18383798D02*
X8133750Y-18393321D01*
X8133750Y-18393321D02*
X8143274Y-18412369D01*
X8143274Y-18412369D02*
X8152798Y-18450464D01*
X8152798Y-18450464D02*
X8152798Y-18498083D01*
X8152798Y-18498083D02*
X8143274Y-18536179D01*
X8143274Y-18536179D02*
X8133750Y-18555226D01*
X8133750Y-18555226D02*
X8124226Y-18564750D01*
X8124226Y-18564750D02*
X8105179Y-18574274D01*
X8105179Y-18574274D02*
X8086131Y-18574274D01*
X8086131Y-18574274D02*
X8067083Y-18564750D01*
X8067083Y-18564750D02*
X8057559Y-18555226D01*
X8057559Y-18555226D02*
X8048036Y-18536179D01*
X8048036Y-18536179D02*
X8038512Y-18498083D01*
X8038512Y-18498083D02*
X8038512Y-18450464D01*
X8038512Y-18450464D02*
X8048036Y-18412369D01*
X8048036Y-18412369D02*
X8057559Y-18393321D01*
X8057559Y-18393321D02*
X8067083Y-18383798D01*
X8067083Y-18383798D02*
X8086131Y-18374274D01*
X8238512Y-18574274D02*
X8238512Y-18440940D01*
X8238512Y-18459988D02*
X8248036Y-18450464D01*
X8248036Y-18450464D02*
X8267083Y-18440940D01*
X8267083Y-18440940D02*
X8295655Y-18440940D01*
X8295655Y-18440940D02*
X8314702Y-18450464D01*
X8314702Y-18450464D02*
X8324226Y-18469512D01*
X8324226Y-18469512D02*
X8324226Y-18574274D01*
X8324226Y-18469512D02*
X8333750Y-18450464D01*
X8333750Y-18450464D02*
X8352798Y-18440940D01*
X8352798Y-18440940D02*
X8381369Y-18440940D01*
X8381369Y-18440940D02*
X8400417Y-18450464D01*
X8400417Y-18450464D02*
X8409941Y-18469512D01*
X8409941Y-18469512D02*
X8409941Y-18574274D01*
X8505179Y-18574274D02*
X8505179Y-18440940D01*
X8505179Y-18459988D02*
X8514702Y-18450464D01*
X8514702Y-18450464D02*
X8533750Y-18440940D01*
X8533750Y-18440940D02*
X8562322Y-18440940D01*
X8562322Y-18440940D02*
X8581369Y-18450464D01*
X8581369Y-18450464D02*
X8590893Y-18469512D01*
X8590893Y-18469512D02*
X8590893Y-18574274D01*
X8590893Y-18469512D02*
X8600417Y-18450464D01*
X8600417Y-18450464D02*
X8619464Y-18440940D01*
X8619464Y-18440940D02*
X8648036Y-18440940D01*
X8648036Y-18440940D02*
X8667083Y-18450464D01*
X8667083Y-18450464D02*
X8676607Y-18469512D01*
X8676607Y-18469512D02*
X8676607Y-18574274D01*
X9067083Y-18364750D02*
X8895655Y-18621893D01*
X9324226Y-18374274D02*
X9343274Y-18374274D01*
X9343274Y-18374274D02*
X9362322Y-18383798D01*
X9362322Y-18383798D02*
X9371845Y-18393321D01*
X9371845Y-18393321D02*
X9381369Y-18412369D01*
X9381369Y-18412369D02*
X9390893Y-18450464D01*
X9390893Y-18450464D02*
X9390893Y-18498083D01*
X9390893Y-18498083D02*
X9381369Y-18536179D01*
X9381369Y-18536179D02*
X9371845Y-18555226D01*
X9371845Y-18555226D02*
X9362322Y-18564750D01*
X9362322Y-18564750D02*
X9343274Y-18574274D01*
X9343274Y-18574274D02*
X9324226Y-18574274D01*
X9324226Y-18574274D02*
X9305179Y-18564750D01*
X9305179Y-18564750D02*
X9295655Y-18555226D01*
X9295655Y-18555226D02*
X9286131Y-18536179D01*
X9286131Y-18536179D02*
X9276607Y-18498083D01*
X9276607Y-18498083D02*
X9276607Y-18450464D01*
X9276607Y-18450464D02*
X9286131Y-18412369D01*
X9286131Y-18412369D02*
X9295655Y-18393321D01*
X9295655Y-18393321D02*
X9305179Y-18383798D01*
X9305179Y-18383798D02*
X9324226Y-18374274D01*
X9476607Y-18555226D02*
X9486131Y-18564750D01*
X9486131Y-18564750D02*
X9476607Y-18574274D01*
X9476607Y-18574274D02*
X9467084Y-18564750D01*
X9467084Y-18564750D02*
X9476607Y-18555226D01*
X9476607Y-18555226D02*
X9476607Y-18574274D01*
X9676607Y-18574274D02*
X9562322Y-18574274D01*
X9619464Y-18574274D02*
X9619464Y-18374274D01*
X9619464Y-18374274D02*
X9600417Y-18402845D01*
X9600417Y-18402845D02*
X9581369Y-18421893D01*
X9581369Y-18421893D02*
X9562322Y-18431417D01*
X9867084Y-18574274D02*
X9752798Y-18574274D01*
X9809941Y-18574274D02*
X9809941Y-18374274D01*
X9809941Y-18374274D02*
X9790893Y-18402845D01*
X9790893Y-18402845D02*
X9771845Y-18421893D01*
X9771845Y-18421893D02*
X9752798Y-18431417D01*
X9981369Y-18459988D02*
X9962322Y-18450464D01*
X9962322Y-18450464D02*
X9952798Y-18440940D01*
X9952798Y-18440940D02*
X9943274Y-18421893D01*
X9943274Y-18421893D02*
X9943274Y-18412369D01*
X9943274Y-18412369D02*
X9952798Y-18393321D01*
X9952798Y-18393321D02*
X9962322Y-18383798D01*
X9962322Y-18383798D02*
X9981369Y-18374274D01*
X9981369Y-18374274D02*
X10019465Y-18374274D01*
X10019465Y-18374274D02*
X10038512Y-18383798D01*
X10038512Y-18383798D02*
X10048036Y-18393321D01*
X10048036Y-18393321D02*
X10057560Y-18412369D01*
X10057560Y-18412369D02*
X10057560Y-18421893D01*
X10057560Y-18421893D02*
X10048036Y-18440940D01*
X10048036Y-18440940D02*
X10038512Y-18450464D01*
X10038512Y-18450464D02*
X10019465Y-18459988D01*
X10019465Y-18459988D02*
X9981369Y-18459988D01*
X9981369Y-18459988D02*
X9962322Y-18469512D01*
X9962322Y-18469512D02*
X9952798Y-18479036D01*
X9952798Y-18479036D02*
X9943274Y-18498083D01*
X9943274Y-18498083D02*
X9943274Y-18536179D01*
X9943274Y-18536179D02*
X9952798Y-18555226D01*
X9952798Y-18555226D02*
X9962322Y-18564750D01*
X9962322Y-18564750D02*
X9981369Y-18574274D01*
X9981369Y-18574274D02*
X10019465Y-18574274D01*
X10019465Y-18574274D02*
X10038512Y-18564750D01*
X10038512Y-18564750D02*
X10048036Y-18555226D01*
X10048036Y-18555226D02*
X10057560Y-18536179D01*
X10057560Y-18536179D02*
X10057560Y-18498083D01*
X10057560Y-18498083D02*
X10048036Y-18479036D01*
X10048036Y-18479036D02*
X10038512Y-18469512D01*
X10038512Y-18469512D02*
X10019465Y-18459988D01*
X10248036Y-18574274D02*
X10133750Y-18574274D01*
X10190893Y-18574274D02*
X10190893Y-18374274D01*
X10190893Y-18374274D02*
X10171845Y-18402845D01*
X10171845Y-18402845D02*
X10152798Y-18421893D01*
X10152798Y-18421893D02*
X10133750Y-18431417D01*
X10324226Y-18374274D02*
X10324226Y-18412369D01*
X10400417Y-18374274D02*
X10400417Y-18412369D01*
X10695655Y-18650464D02*
X10686131Y-18640940D01*
X10686131Y-18640940D02*
X10667084Y-18612369D01*
X10667084Y-18612369D02*
X10657560Y-18593321D01*
X10657560Y-18593321D02*
X10648036Y-18564750D01*
X10648036Y-18564750D02*
X10638512Y-18517131D01*
X10638512Y-18517131D02*
X10638512Y-18479036D01*
X10638512Y-18479036D02*
X10648036Y-18431417D01*
X10648036Y-18431417D02*
X10657560Y-18402845D01*
X10657560Y-18402845D02*
X10667084Y-18383798D01*
X10667084Y-18383798D02*
X10686131Y-18355226D01*
X10686131Y-18355226D02*
X10695655Y-18345702D01*
X10867084Y-18374274D02*
X10771846Y-18374274D01*
X10771846Y-18374274D02*
X10762322Y-18469512D01*
X10762322Y-18469512D02*
X10771846Y-18459988D01*
X10771846Y-18459988D02*
X10790893Y-18450464D01*
X10790893Y-18450464D02*
X10838512Y-18450464D01*
X10838512Y-18450464D02*
X10857560Y-18459988D01*
X10857560Y-18459988D02*
X10867084Y-18469512D01*
X10867084Y-18469512D02*
X10876607Y-18488560D01*
X10876607Y-18488560D02*
X10876607Y-18536179D01*
X10876607Y-18536179D02*
X10867084Y-18555226D01*
X10867084Y-18555226D02*
X10857560Y-18564750D01*
X10857560Y-18564750D02*
X10838512Y-18574274D01*
X10838512Y-18574274D02*
X10790893Y-18574274D01*
X10790893Y-18574274D02*
X10771846Y-18564750D01*
X10771846Y-18564750D02*
X10762322Y-18555226D01*
X11000417Y-18374274D02*
X11019465Y-18374274D01*
X11019465Y-18374274D02*
X11038512Y-18383798D01*
X11038512Y-18383798D02*
X11048036Y-18393321D01*
X11048036Y-18393321D02*
X11057560Y-18412369D01*
X11057560Y-18412369D02*
X11067084Y-18450464D01*
X11067084Y-18450464D02*
X11067084Y-18498083D01*
X11067084Y-18498083D02*
X11057560Y-18536179D01*
X11057560Y-18536179D02*
X11048036Y-18555226D01*
X11048036Y-18555226D02*
X11038512Y-18564750D01*
X11038512Y-18564750D02*
X11019465Y-18574274D01*
X11019465Y-18574274D02*
X11000417Y-18574274D01*
X11000417Y-18574274D02*
X10981369Y-18564750D01*
X10981369Y-18564750D02*
X10971846Y-18555226D01*
X10971846Y-18555226D02*
X10962322Y-18536179D01*
X10962322Y-18536179D02*
X10952798Y-18498083D01*
X10952798Y-18498083D02*
X10952798Y-18450464D01*
X10952798Y-18450464D02*
X10962322Y-18412369D01*
X10962322Y-18412369D02*
X10971846Y-18393321D01*
X10971846Y-18393321D02*
X10981369Y-18383798D01*
X10981369Y-18383798D02*
X11000417Y-18374274D01*
X11305179Y-18574274D02*
X11305179Y-18374274D01*
X11390893Y-18574274D02*
X11390893Y-18469512D01*
X11390893Y-18469512D02*
X11381369Y-18450464D01*
X11381369Y-18450464D02*
X11362322Y-18440940D01*
X11362322Y-18440940D02*
X11333750Y-18440940D01*
X11333750Y-18440940D02*
X11314703Y-18450464D01*
X11314703Y-18450464D02*
X11305179Y-18459988D01*
X11514703Y-18574274D02*
X11495655Y-18564750D01*
X11495655Y-18564750D02*
X11486131Y-18555226D01*
X11486131Y-18555226D02*
X11476607Y-18536179D01*
X11476607Y-18536179D02*
X11476607Y-18479036D01*
X11476607Y-18479036D02*
X11486131Y-18459988D01*
X11486131Y-18459988D02*
X11495655Y-18450464D01*
X11495655Y-18450464D02*
X11514703Y-18440940D01*
X11514703Y-18440940D02*
X11543274Y-18440940D01*
X11543274Y-18440940D02*
X11562322Y-18450464D01*
X11562322Y-18450464D02*
X11571846Y-18459988D01*
X11571846Y-18459988D02*
X11581369Y-18479036D01*
X11581369Y-18479036D02*
X11581369Y-18536179D01*
X11581369Y-18536179D02*
X11571846Y-18555226D01*
X11571846Y-18555226D02*
X11562322Y-18564750D01*
X11562322Y-18564750D02*
X11543274Y-18574274D01*
X11543274Y-18574274D02*
X11514703Y-18574274D01*
X11695655Y-18574274D02*
X11676607Y-18564750D01*
X11676607Y-18564750D02*
X11667084Y-18545702D01*
X11667084Y-18545702D02*
X11667084Y-18374274D01*
X11848036Y-18564750D02*
X11828988Y-18574274D01*
X11828988Y-18574274D02*
X11790893Y-18574274D01*
X11790893Y-18574274D02*
X11771846Y-18564750D01*
X11771846Y-18564750D02*
X11762322Y-18545702D01*
X11762322Y-18545702D02*
X11762322Y-18469512D01*
X11762322Y-18469512D02*
X11771846Y-18450464D01*
X11771846Y-18450464D02*
X11790893Y-18440940D01*
X11790893Y-18440940D02*
X11828988Y-18440940D01*
X11828988Y-18440940D02*
X11848036Y-18450464D01*
X11848036Y-18450464D02*
X11857560Y-18469512D01*
X11857560Y-18469512D02*
X11857560Y-18488560D01*
X11857560Y-18488560D02*
X11762322Y-18507607D01*
X11933750Y-18564750D02*
X11952798Y-18574274D01*
X11952798Y-18574274D02*
X11990893Y-18574274D01*
X11990893Y-18574274D02*
X12009941Y-18564750D01*
X12009941Y-18564750D02*
X12019465Y-18545702D01*
X12019465Y-18545702D02*
X12019465Y-18536179D01*
X12019465Y-18536179D02*
X12009941Y-18517131D01*
X12009941Y-18517131D02*
X11990893Y-18507607D01*
X11990893Y-18507607D02*
X11962322Y-18507607D01*
X11962322Y-18507607D02*
X11943274Y-18498083D01*
X11943274Y-18498083D02*
X11933750Y-18479036D01*
X11933750Y-18479036D02*
X11933750Y-18469512D01*
X11933750Y-18469512D02*
X11943274Y-18450464D01*
X11943274Y-18450464D02*
X11962322Y-18440940D01*
X11962322Y-18440940D02*
X11990893Y-18440940D01*
X11990893Y-18440940D02*
X12009941Y-18450464D01*
X12086131Y-18650464D02*
X12095655Y-18640940D01*
X12095655Y-18640940D02*
X12114703Y-18612369D01*
X12114703Y-18612369D02*
X12124227Y-18593321D01*
X12124227Y-18593321D02*
X12133750Y-18564750D01*
X12133750Y-18564750D02*
X12143274Y-18517131D01*
X12143274Y-18517131D02*
X12143274Y-18479036D01*
X12143274Y-18479036D02*
X12133750Y-18431417D01*
X12133750Y-18431417D02*
X12124227Y-18402845D01*
X12124227Y-18402845D02*
X12114703Y-18383798D01*
X12114703Y-18383798D02*
X12095655Y-18355226D01*
X12095655Y-18355226D02*
X12086131Y-18345702D01*
M02*
