%TF.GenerationSoftware,KiCad,Pcbnew,7.0.1*%
%TF.CreationDate,2023-04-16T00:18:29-05:00*%
%TF.ProjectId,5x5 Macro Pad,35783520-4d61-4637-926f-205061642e6b,rev?*%
%TF.SameCoordinates,Original*%
%TF.FileFunction,Copper,L1,Top*%
%TF.FilePolarity,Positive*%
%FSLAX46Y46*%
G04 Gerber Fmt 4.6, Leading zero omitted, Abs format (unit mm)*
G04 Created by KiCad (PCBNEW 7.0.1) date 2023-04-16 00:18:29*
%MOMM*%
%LPD*%
G01*
G04 APERTURE LIST*
%TA.AperFunction,ComponentPad*%
%ADD10C,3.300000*%
%TD*%
%TA.AperFunction,SMDPad,CuDef*%
%ADD11R,3.500000X1.700000*%
%TD*%
%TA.AperFunction,ComponentPad*%
%ADD12O,1.700000X1.700000*%
%TD*%
%TA.AperFunction,ComponentPad*%
%ADD13R,1.700000X1.700000*%
%TD*%
%TA.AperFunction,SMDPad,CuDef*%
%ADD14R,1.700000X3.500000*%
%TD*%
%TA.AperFunction,ViaPad*%
%ADD15C,0.800000*%
%TD*%
%TA.AperFunction,Conductor*%
%ADD16C,0.250000*%
%TD*%
G04 APERTURE END LIST*
D10*
%TO.P,MX25,1,1*%
%TO.N,COL4*%
X153352500Y-159385000D03*
%TO.P,MX25,2,2*%
%TO.N,Net-(D25-A)*%
X159702500Y-156845000D03*
%TD*%
%TO.P,MX24,1,1*%
%TO.N,COL3*%
X134302500Y-159385000D03*
%TO.P,MX24,2,2*%
%TO.N,Net-(D24-A)*%
X140652500Y-156845000D03*
%TD*%
%TO.P,MX23,1,1*%
%TO.N,COL2*%
X115252500Y-159385000D03*
%TO.P,MX23,2,2*%
%TO.N,Net-(D23-A)*%
X121602500Y-156845000D03*
%TD*%
%TO.P,MX22,1,1*%
%TO.N,COL1*%
X96202500Y-159385000D03*
%TO.P,MX22,2,2*%
%TO.N,Net-(D22-A)*%
X102552500Y-156845000D03*
%TD*%
%TO.P,MX21,1,1*%
%TO.N,COL0*%
X77152500Y-159385000D03*
%TO.P,MX21,2,2*%
%TO.N,Net-(D21-A)*%
X83502500Y-156845000D03*
%TD*%
%TO.P,MX20,1,1*%
%TO.N,COL4*%
X153352500Y-140335000D03*
%TO.P,MX20,2,2*%
%TO.N,Net-(D20-A)*%
X159702500Y-137795000D03*
%TD*%
%TO.P,MX19,1,1*%
%TO.N,COL3*%
X134302500Y-140335000D03*
%TO.P,MX19,2,2*%
%TO.N,Net-(D19-A)*%
X140652500Y-137795000D03*
%TD*%
%TO.P,MX18,1,1*%
%TO.N,COL2*%
X115252500Y-140335000D03*
%TO.P,MX18,2,2*%
%TO.N,Net-(D18-A)*%
X121602500Y-137795000D03*
%TD*%
%TO.P,MX17,1,1*%
%TO.N,COL1*%
X96202500Y-140335000D03*
%TO.P,MX17,2,2*%
%TO.N,Net-(D17-A)*%
X102552500Y-137795000D03*
%TD*%
%TO.P,MX16,1,1*%
%TO.N,COL0*%
X77152500Y-140335000D03*
%TO.P,MX16,2,2*%
%TO.N,Net-(D16-A)*%
X83502500Y-137795000D03*
%TD*%
%TO.P,MX15,1,1*%
%TO.N,COL4*%
X153352500Y-121285000D03*
%TO.P,MX15,2,2*%
%TO.N,Net-(D15-A)*%
X159702500Y-118745000D03*
%TD*%
%TO.P,MX14,1,1*%
%TO.N,COL3*%
X134302500Y-121285000D03*
%TO.P,MX14,2,2*%
%TO.N,Net-(D14-A)*%
X140652500Y-118745000D03*
%TD*%
%TO.P,MX13,1,1*%
%TO.N,COL2*%
X115252500Y-121285000D03*
%TO.P,MX13,2,2*%
%TO.N,Net-(D13-A)*%
X121602500Y-118745000D03*
%TD*%
%TO.P,MX12,1,1*%
%TO.N,COL1*%
X96202500Y-121285000D03*
%TO.P,MX12,2,2*%
%TO.N,Net-(D12-A)*%
X102552500Y-118745000D03*
%TD*%
%TO.P,MX11,1,1*%
%TO.N,COL0*%
X77152500Y-121285000D03*
%TO.P,MX11,2,2*%
%TO.N,Net-(D11-A)*%
X83502500Y-118745000D03*
%TD*%
%TO.P,MX10,1,1*%
%TO.N,COL4*%
X153352500Y-102235000D03*
%TO.P,MX10,2,2*%
%TO.N,Net-(D10-A)*%
X159702500Y-99695000D03*
%TD*%
%TO.P,MX9,1,1*%
%TO.N,COL3*%
X134302500Y-102235000D03*
%TO.P,MX9,2,2*%
%TO.N,Net-(D9-A)*%
X140652500Y-99695000D03*
%TD*%
%TO.P,MX8,1,1*%
%TO.N,COL2*%
X115252500Y-102235000D03*
%TO.P,MX8,2,2*%
%TO.N,Net-(D8-A)*%
X121602500Y-99695000D03*
%TD*%
%TO.P,MX7,1,1*%
%TO.N,COL1*%
X96202500Y-102235000D03*
%TO.P,MX7,2,2*%
%TO.N,Net-(D7-A)*%
X102552500Y-99695000D03*
%TD*%
%TO.P,MX6,1,1*%
%TO.N,COL0*%
X77152500Y-102235000D03*
%TO.P,MX6,2,2*%
%TO.N,Net-(D6-A)*%
X83502500Y-99695000D03*
%TD*%
%TO.P,MX5,1,1*%
%TO.N,COL4*%
X153352500Y-83185000D03*
%TO.P,MX5,2,2*%
%TO.N,Net-(D5-A)*%
X159702500Y-80645000D03*
%TD*%
%TO.P,MX4,1,1*%
%TO.N,COL3*%
X134302500Y-83185000D03*
%TO.P,MX4,2,2*%
%TO.N,Net-(D4-A)*%
X140652500Y-80645000D03*
%TD*%
%TO.P,MX3,1,1*%
%TO.N,COL2*%
X115252500Y-83185000D03*
%TO.P,MX3,2,2*%
%TO.N,Net-(D3-A)*%
X121602500Y-80645000D03*
%TD*%
%TO.P,MX2,1,1*%
%TO.N,COL1*%
X96202500Y-83185000D03*
%TO.P,MX2,2,2*%
%TO.N,Net-(D2-A)*%
X102552500Y-80645000D03*
%TD*%
%TO.P,MX1,1,1*%
%TO.N,COL0*%
X77152500Y-83185000D03*
%TO.P,MX1,2,2*%
%TO.N,Net-(D1-A)*%
X83502500Y-80645000D03*
%TD*%
D11*
%TO.P,U1,43,SWDIO*%
%TO.N,unconnected-(U1-SWDIO-Pad43)*%
X116354500Y-61976000D03*
D12*
X117254500Y-61976000D03*
D11*
%TO.P,U1,42,GND*%
%TO.N,unconnected-(U1-GND-Pad42)*%
X116354500Y-59436000D03*
D13*
X117254500Y-59436000D03*
D11*
%TO.P,U1,41,SWCLK*%
%TO.N,unconnected-(U1-SWCLK-Pad41)*%
X116354500Y-56896000D03*
D12*
X117254500Y-56896000D03*
D14*
%TO.P,U1,40,VBUS*%
%TO.N,unconnected-(U1-VBUS-Pad40)*%
X165284500Y-69226000D03*
D12*
X165284500Y-68326000D03*
D14*
%TO.P,U1,39,VSYS*%
%TO.N,unconnected-(U1-VSYS-Pad39)*%
X162744500Y-69226000D03*
D12*
X162744500Y-68326000D03*
D14*
%TO.P,U1,38,GND*%
%TO.N,unconnected-(U1-GND-Pad38)*%
X160204500Y-69226000D03*
D13*
X160204500Y-68326000D03*
D14*
%TO.P,U1,37,3V3_EN*%
%TO.N,unconnected-(U1-3V3_EN-Pad37)*%
X157664500Y-69226000D03*
D12*
X157664500Y-68326000D03*
D14*
%TO.P,U1,36,3V3*%
%TO.N,unconnected-(U1-3V3-Pad36)*%
X155124500Y-69226000D03*
D12*
X155124500Y-68326000D03*
D14*
%TO.P,U1,35,ADC_VREF*%
%TO.N,unconnected-(U1-ADC_VREF-Pad35)*%
X152584500Y-69226000D03*
D12*
X152584500Y-68326000D03*
D14*
%TO.P,U1,34,GPIO28_ADC2*%
%TO.N,COL4*%
X150044500Y-69226000D03*
D12*
X150044500Y-68326000D03*
D14*
%TO.P,U1,33,AGND*%
%TO.N,unconnected-(U1-AGND-Pad33)*%
X147504500Y-69226000D03*
D13*
X147504500Y-68326000D03*
D14*
%TO.P,U1,32,GPIO27_ADC1*%
%TO.N,COL3*%
X144964500Y-69226000D03*
D12*
X144964500Y-68326000D03*
D14*
%TO.P,U1,31,GPIO26_ADC0*%
%TO.N,COL2*%
X142424500Y-69226000D03*
D12*
X142424500Y-68326000D03*
D14*
%TO.P,U1,30,RUN*%
%TO.N,unconnected-(U1-RUN-Pad30)*%
X139884500Y-69226000D03*
D12*
X139884500Y-68326000D03*
D14*
%TO.P,U1,29,GPIO22*%
%TO.N,COL1*%
X137344500Y-69226000D03*
D12*
X137344500Y-68326000D03*
D14*
%TO.P,U1,28,GND*%
%TO.N,unconnected-(U1-GND-Pad28)*%
X134804500Y-69226000D03*
D13*
X134804500Y-68326000D03*
D14*
%TO.P,U1,27,GPIO21*%
%TO.N,COL0*%
X132264500Y-69226000D03*
D12*
X132264500Y-68326000D03*
D14*
%TO.P,U1,26,GPIO20*%
%TO.N,ROW4*%
X129724500Y-69226000D03*
D12*
X129724500Y-68326000D03*
D14*
%TO.P,U1,25,GPIO19*%
%TO.N,ROW3*%
X127184500Y-69226000D03*
D12*
X127184500Y-68326000D03*
D14*
%TO.P,U1,24,GPIO18*%
%TO.N,ROW2*%
X124644500Y-69226000D03*
D12*
X124644500Y-68326000D03*
D14*
%TO.P,U1,23,GND*%
%TO.N,unconnected-(U1-GND-Pad23)*%
X122104500Y-69226000D03*
D13*
X122104500Y-68326000D03*
D14*
%TO.P,U1,22,GPIO17*%
%TO.N,ROW1*%
X119564500Y-69226000D03*
D12*
X119564500Y-68326000D03*
D14*
%TO.P,U1,21,GPIO16*%
%TO.N,ROW0*%
X117024500Y-69226000D03*
D12*
X117024500Y-68326000D03*
D14*
%TO.P,U1,20,GPIO15*%
%TO.N,unconnected-(U1-GPIO15-Pad20)*%
X117024500Y-49646000D03*
D12*
X117024500Y-50546000D03*
D14*
%TO.P,U1,19,GPIO14*%
%TO.N,unconnected-(U1-GPIO14-Pad19)*%
X119564500Y-49646000D03*
D12*
X119564500Y-50546000D03*
D14*
%TO.P,U1,18,GND*%
%TO.N,unconnected-(U1-GND-Pad18)*%
X122104500Y-49646000D03*
D13*
X122104500Y-50546000D03*
D14*
%TO.P,U1,17,GPIO13*%
%TO.N,unconnected-(U1-GPIO13-Pad17)*%
X124644500Y-49646000D03*
D12*
X124644500Y-50546000D03*
D14*
%TO.P,U1,16,GPIO12*%
%TO.N,unconnected-(U1-GPIO12-Pad16)*%
X127184500Y-49646000D03*
D12*
X127184500Y-50546000D03*
D14*
%TO.P,U1,15,GPIO11*%
%TO.N,unconnected-(U1-GPIO11-Pad15)*%
X129724500Y-49646000D03*
D12*
X129724500Y-50546000D03*
D14*
%TO.P,U1,14,GPIO10*%
%TO.N,unconnected-(U1-GPIO10-Pad14)*%
X132264500Y-49646000D03*
D12*
X132264500Y-50546000D03*
D14*
%TO.P,U1,13,GND*%
%TO.N,unconnected-(U1-GND-Pad13)*%
X134804500Y-49646000D03*
D13*
X134804500Y-50546000D03*
D14*
%TO.P,U1,12,GPIO9*%
%TO.N,unconnected-(U1-GPIO9-Pad12)*%
X137344500Y-49646000D03*
D12*
X137344500Y-50546000D03*
D14*
%TO.P,U1,11,GPIO8*%
%TO.N,unconnected-(U1-GPIO8-Pad11)*%
X139884500Y-49646000D03*
D12*
X139884500Y-50546000D03*
D14*
%TO.P,U1,10,GPIO7*%
%TO.N,unconnected-(U1-GPIO7-Pad10)*%
X142424500Y-49646000D03*
D12*
X142424500Y-50546000D03*
D14*
%TO.P,U1,9,GPIO6*%
%TO.N,unconnected-(U1-GPIO6-Pad9)*%
X144964500Y-49646000D03*
D12*
X144964500Y-50546000D03*
D14*
%TO.P,U1,8,GND*%
%TO.N,unconnected-(U1-GND-Pad8)*%
X147504500Y-49646000D03*
D13*
X147504500Y-50546000D03*
D14*
%TO.P,U1,7,GPIO5*%
%TO.N,unconnected-(U1-GPIO5-Pad7)*%
X150044500Y-49646000D03*
D12*
X150044500Y-50546000D03*
D14*
%TO.P,U1,6,GPIO4*%
%TO.N,unconnected-(U1-GPIO4-Pad6)*%
X152584500Y-49646000D03*
D12*
X152584500Y-50546000D03*
D14*
%TO.P,U1,5,GPIO3*%
%TO.N,unconnected-(U1-GPIO3-Pad5)*%
X155124500Y-49646000D03*
D12*
X155124500Y-50546000D03*
D14*
%TO.P,U1,4,GPIO2*%
%TO.N,unconnected-(U1-GPIO2-Pad4)*%
X157664500Y-49646000D03*
D12*
X157664500Y-50546000D03*
D14*
%TO.P,U1,3,GND*%
%TO.N,unconnected-(U1-GND-Pad3)*%
X160204500Y-49646000D03*
D13*
X160204500Y-50546000D03*
D14*
%TO.P,U1,2,GPIO1*%
%TO.N,unconnected-(U1-GPIO1-Pad2)*%
X162744500Y-49646000D03*
D12*
X162744500Y-50546000D03*
D14*
%TO.P,U1,1,GPIO0*%
%TO.N,unconnected-(U1-GPIO0-Pad1)*%
X165284500Y-49646000D03*
D12*
X165284500Y-50546000D03*
%TD*%
D15*
%TO.N,ROW0*%
X87052500Y-72961500D03*
%TO.N,ROW1*%
X87846250Y-72167750D03*
%TO.N,ROW2*%
X88640000Y-72961500D03*
%TO.N,ROW3*%
X89433750Y-72167750D03*
%TO.N,ROW4*%
X90227500Y-72961500D03*
%TO.N,ROW0*%
X87052500Y-76136500D03*
%TO.N,ROW1*%
X87846250Y-76930250D03*
%TO.N,ROW2*%
X88640000Y-76136500D03*
%TO.N,ROW3*%
X89433750Y-76930250D03*
%TO.N,ROW4*%
X90227500Y-76136500D03*
X83083750Y-169005250D03*
%TO.N,ROW3*%
X83083750Y-149955250D03*
%TO.N,ROW2*%
X83083750Y-130905250D03*
%TO.N,ROW1*%
X83083750Y-111855250D03*
%TO.N,ROW0*%
X83083750Y-92805250D03*
%TO.N,COL4*%
X148965000Y-78517750D03*
%TO.N,COL3*%
X129915000Y-78517750D03*
%TO.N,COL4*%
X148965000Y-97567750D03*
X148965000Y-94392750D03*
X148965000Y-116617750D03*
X148965000Y-113442750D03*
X148965000Y-135667750D03*
X148965000Y-132492750D03*
X148965000Y-154717750D03*
X148965000Y-151542750D03*
%TO.N,COL3*%
X129915000Y-97567750D03*
X129915000Y-94392750D03*
X129915000Y-116617750D03*
X129915000Y-113442750D03*
X129915000Y-135667750D03*
X129915000Y-132492750D03*
X129915000Y-154717750D03*
X129915000Y-151542750D03*
%TO.N,COL2*%
X110865000Y-78517750D03*
X110865000Y-97567750D03*
X110865000Y-94392750D03*
X110865000Y-116617750D03*
X110865000Y-113442750D03*
X110865000Y-135667750D03*
X110865000Y-132492750D03*
X110865000Y-154717750D03*
X110865000Y-151542750D03*
%TO.N,COL1*%
X91815000Y-78517750D03*
%TO.N,COL0*%
X72765000Y-78517750D03*
X72765000Y-94392750D03*
X72765000Y-97567750D03*
X72765000Y-113442750D03*
X72765000Y-116617750D03*
X72765000Y-132492750D03*
X72765000Y-135667750D03*
X72765000Y-151542750D03*
X72765000Y-154717750D03*
%TO.N,COL1*%
X91815000Y-94392750D03*
X91815000Y-97567750D03*
X91815000Y-113442750D03*
X91815000Y-116617750D03*
X91815000Y-132492750D03*
X91815000Y-135667750D03*
X91815000Y-151542750D03*
X91815000Y-154717750D03*
%TD*%
D16*
%TO.N,COL1*%
X91815000Y-132492750D02*
X91815000Y-135667750D01*
%TO.N,COL0*%
X132264500Y-72093250D02*
X132264500Y-68326000D01*
X130708750Y-73649000D02*
X132264500Y-72093250D01*
X129227500Y-73649000D02*
X130708750Y-73649000D01*
X128777500Y-74099000D02*
X129227500Y-73649000D01*
X108140000Y-74099000D02*
X128777500Y-74099000D01*
X92608750Y-74892750D02*
X107346250Y-74892750D01*
X92265000Y-74549000D02*
X92608750Y-74892750D01*
X91583445Y-74549000D02*
X92265000Y-74549000D01*
X73818750Y-75342750D02*
X90789695Y-75342750D01*
X72765000Y-78517750D02*
X72765000Y-76396500D01*
X90789695Y-75342750D02*
X91583445Y-74549000D01*
X107346250Y-74892750D02*
X108140000Y-74099000D01*
X72765000Y-76396500D02*
X73818750Y-75342750D01*
%TO.N,COL2*%
X129683445Y-74549000D02*
X141821250Y-74549000D01*
X141821250Y-74549000D02*
X142424500Y-73945750D01*
X128889695Y-75342750D02*
X129683445Y-74549000D01*
X110865000Y-76237750D02*
X111760000Y-75342750D01*
X111760000Y-75342750D02*
X128889695Y-75342750D01*
X142424500Y-73945750D02*
X142424500Y-68326000D01*
X110865000Y-78517750D02*
X110865000Y-76237750D01*
%TO.N,COL3*%
X144964500Y-72199500D02*
X144964500Y-68326000D01*
X143408750Y-75342750D02*
X144996250Y-73755250D01*
X144996250Y-73755250D02*
X144996250Y-72231250D01*
X130810000Y-75342750D02*
X143408750Y-75342750D01*
X129915000Y-78517750D02*
X129915000Y-76237750D01*
X129915000Y-76237750D02*
X130810000Y-75342750D01*
X144996250Y-72231250D02*
X144964500Y-72199500D01*
%TO.N,COL1*%
X137344500Y-73469500D02*
X137344500Y-68326000D01*
X136715000Y-74099000D02*
X137344500Y-73469500D01*
X129047049Y-74549000D02*
X129497049Y-74099000D01*
X129497049Y-74099000D02*
X136715000Y-74099000D01*
X92964000Y-75342750D02*
X107690000Y-75342750D01*
X91815000Y-76491750D02*
X92964000Y-75342750D01*
X91815000Y-78517750D02*
X91815000Y-76491750D01*
X107690000Y-75342750D02*
X108483750Y-74549000D01*
X108483750Y-74549000D02*
X129047049Y-74549000D01*
%TO.N,ROW0*%
X107208020Y-71849000D02*
X113246250Y-71849000D01*
X106414270Y-72642750D02*
X107208020Y-71849000D01*
X93588896Y-72642750D02*
X106414270Y-72642750D01*
X92499493Y-72299000D02*
X93245146Y-72299000D01*
X91006847Y-70806354D02*
X92499493Y-72299000D01*
X90370451Y-70806354D02*
X91006847Y-70806354D01*
X88760653Y-70542750D02*
X90106847Y-70542750D01*
X87052500Y-71936195D02*
X87614695Y-71374000D01*
X87929403Y-71374000D02*
X88760653Y-70542750D01*
X87052500Y-72961500D02*
X87052500Y-71936195D01*
X116740000Y-71849000D02*
X116421250Y-71849000D01*
X87614695Y-71374000D02*
X87929403Y-71374000D01*
X90106847Y-70542750D02*
X90370451Y-70806354D01*
X116421250Y-71849000D02*
X112452500Y-71849000D01*
X117024500Y-71564500D02*
X116740000Y-71849000D01*
X93245146Y-72299000D02*
X93588896Y-72642750D01*
X117024500Y-68326000D02*
X117024500Y-71564500D01*
%TO.N,ROW1*%
X91731847Y-72167750D02*
X91376548Y-71812451D01*
X91773423Y-72209326D02*
X91731847Y-72167750D01*
X92313097Y-72749000D02*
X91773423Y-72209326D01*
X92637792Y-72749000D02*
X92313097Y-72749000D01*
X93058750Y-72749000D02*
X92637792Y-72749000D01*
X93402500Y-73092750D02*
X93058750Y-72749000D01*
X94065000Y-73092750D02*
X93402500Y-73092750D01*
X94196250Y-73092750D02*
X94065000Y-73092750D01*
X106102500Y-73092750D02*
X94196250Y-73092750D01*
X106600666Y-73092750D02*
X106102500Y-73092750D01*
X107394416Y-72299000D02*
X106814083Y-72879333D01*
X107690000Y-72299000D02*
X107394416Y-72299000D01*
X118671250Y-72299000D02*
X107690000Y-72299000D01*
X118802500Y-72167750D02*
X118671250Y-72299000D01*
X119564500Y-71405750D02*
X118802500Y-72167750D01*
X106814083Y-72879333D02*
X106600666Y-73092750D01*
X119564500Y-68326000D02*
X119564500Y-71405750D01*
X90831847Y-71267750D02*
X91376549Y-71812452D01*
X90195451Y-71267750D02*
X90227500Y-71267750D01*
X89920451Y-70992750D02*
X90195451Y-71267750D01*
X90227500Y-71267750D02*
X90831847Y-71267750D01*
X88947049Y-70992750D02*
X89920451Y-70992750D01*
X87846250Y-72093549D02*
X88947049Y-70992750D01*
%TO.N,ROW2*%
X88640000Y-71936195D02*
X88640000Y-72961500D01*
X89133445Y-71442750D02*
X88640000Y-71936195D01*
X89734055Y-71442750D02*
X89133445Y-71442750D01*
X90009055Y-71717750D02*
X89734055Y-71442750D01*
X90645451Y-71717750D02*
X90009055Y-71717750D01*
X92824188Y-73199000D02*
X92126701Y-73199000D01*
X106787062Y-73542750D02*
X93167938Y-73542750D01*
X107580812Y-72749000D02*
X106787062Y-73542750D01*
X92126701Y-73199000D02*
X90645451Y-71717750D01*
X123777500Y-72749000D02*
X107580812Y-72749000D01*
X124644500Y-71882000D02*
X123777500Y-72749000D01*
X124644500Y-68326000D02*
X124644500Y-71882000D01*
X93167938Y-73542750D02*
X92824188Y-73199000D01*
%TO.N,ROW3*%
X90459055Y-72167750D02*
X89433750Y-72167750D01*
X92981542Y-73992750D02*
X92637792Y-73649000D01*
X91940305Y-73649000D02*
X90459055Y-72167750D01*
X106973458Y-73992750D02*
X92981542Y-73992750D01*
X126502500Y-73199000D02*
X107767208Y-73199000D01*
X127184500Y-72517000D02*
X126502500Y-73199000D01*
X107767208Y-73199000D02*
X106973458Y-73992750D01*
X92637792Y-73649000D02*
X91940305Y-73649000D01*
X127184500Y-68326000D02*
X127184500Y-72517000D01*
%TO.N,ROW4*%
X91365000Y-74099000D02*
X90227500Y-72961500D01*
X92451396Y-74099000D02*
X91365000Y-74099000D01*
X92795146Y-74442750D02*
X92451396Y-74099000D01*
X107159854Y-74442750D02*
X92795146Y-74442750D01*
X107953604Y-73649000D02*
X107159854Y-74442750D01*
X128591104Y-73649000D02*
X107953604Y-73649000D01*
X129915000Y-72325104D02*
X128591104Y-73649000D01*
X129915000Y-68516500D02*
X129915000Y-72325104D01*
X129724500Y-68326000D02*
X129915000Y-68516500D01*
%TO.N,COL4*%
X148965000Y-72961500D02*
X148965000Y-75342750D01*
X150044500Y-71882000D02*
X148965000Y-72961500D01*
X150044500Y-68326000D02*
X150044500Y-71882000D01*
%TO.N,ROW1*%
X87846250Y-72093549D02*
X87846250Y-72167750D01*
%TO.N,ROW0*%
X89221250Y-86667750D02*
X83083750Y-92805250D01*
X89221250Y-79330555D02*
X89221250Y-86667750D01*
X87052500Y-77161805D02*
X89221250Y-79330555D01*
X87052500Y-76136500D02*
X87052500Y-77161805D01*
%TO.N,ROW1*%
X89671250Y-78829451D02*
X89671250Y-93599000D01*
X88453604Y-77611805D02*
X89671250Y-78829451D01*
X87846250Y-77004451D02*
X88453604Y-77611805D01*
X87846250Y-76930250D02*
X87846250Y-77004451D01*
%TO.N,ROW2*%
X90121250Y-78643055D02*
X90121250Y-90424000D01*
X88640000Y-77161805D02*
X90121250Y-78643055D01*
X88640000Y-76136500D02*
X88640000Y-77161805D01*
%TO.N,ROW3*%
X90571250Y-78067750D02*
X89433750Y-76930250D01*
X90571250Y-142467750D02*
X90571250Y-78067750D01*
X83083750Y-149955250D02*
X90571250Y-142467750D01*
%TO.N,ROW4*%
X91021250Y-76930250D02*
X90227500Y-76136500D01*
X83083750Y-169005250D02*
X91021250Y-161067750D01*
X91021250Y-161067750D02*
X91021250Y-76930250D01*
%TO.N,ROW1*%
X89671250Y-105267750D02*
X89671250Y-93599000D01*
X83083750Y-111855250D02*
X89671250Y-105267750D01*
%TO.N,ROW2*%
X90121250Y-110267750D02*
X90121250Y-90424000D01*
X90121250Y-123867750D02*
X90121250Y-110267750D01*
X83083750Y-130905250D02*
X90121250Y-123867750D01*
%TO.N,COL0*%
X72765000Y-154717750D02*
X72765000Y-151542750D01*
X72765000Y-135667750D02*
X72765000Y-132492750D01*
%TO.N,COL1*%
X91815000Y-154717750D02*
X91815000Y-151542750D01*
%TO.N,COL2*%
X110865000Y-154717750D02*
X110865000Y-151542750D01*
X110865000Y-135667750D02*
X110865000Y-132492750D01*
%TO.N,COL4*%
X148965000Y-154717750D02*
X148965000Y-151542750D01*
%TO.N,COL3*%
X129915000Y-154717750D02*
X129915000Y-151542750D01*
X129915000Y-135667750D02*
X129915000Y-132492750D01*
%TO.N,COL4*%
X148965000Y-135667750D02*
X148965000Y-132492750D01*
X148965000Y-116617750D02*
X148965000Y-113442750D01*
%TO.N,COL3*%
X129915000Y-116617750D02*
X129915000Y-113442750D01*
%TO.N,COL2*%
X110865000Y-116617750D02*
X110865000Y-113442750D01*
%TO.N,COL1*%
X91815000Y-116617750D02*
X91815000Y-113442750D01*
%TO.N,COL0*%
X72765000Y-116617750D02*
X72765000Y-113442750D01*
X72765000Y-97567750D02*
X72765000Y-94392750D01*
%TO.N,COL1*%
X91815000Y-97567750D02*
X91815000Y-94392750D01*
%TO.N,COL2*%
X110865000Y-97567750D02*
X110865000Y-94392750D01*
%TO.N,COL3*%
X129915000Y-97567750D02*
X129915000Y-94392750D01*
%TO.N,COL4*%
X148965000Y-97567750D02*
X148965000Y-94392750D01*
X148965000Y-75342750D02*
X148965000Y-78517750D01*
%TD*%
M02*
